<svg width="646" height="427" viewBox="0 0 646 427" fill="none" xmlns="http://www.w3.org/2000/svg">
<mask id="mask0_132_6076" style="mask-type:alpha" maskUnits="userSpaceOnUse" x="0" y="0" width="646" height="427">
<rect width="646" height="427" rx="55" fill="#323232"/>
</mask>
<g mask="url(#mask0_132_6076)">
<g filter="url(#filter0_f_132_6076)">
<ellipse cx="570.5" cy="430" rx="170.5" ry="167" fill="#20BCFF"/>
</g>
<g filter="url(#filter1_f_132_6076)">
<ellipse cx="-11.5" cy="14.5" rx="175.5" ry="166.5" fill="#24FFA3"/>
</g>
</g>
<mask id="mask1_132_6076" style="mask-type:alpha" maskUnits="userSpaceOnUse" x="0" y="0" width="646" height="427">
<mask id="mask2_132_6076" style="mask-type:alpha" maskUnits="userSpaceOnUse" x="0" y="0" width="646" height="427">
<rect width="646" height="427" rx="55" fill="black"/>
</mask>
<g mask="url(#mask2_132_6076)">
<ellipse cx="306" cy="231" rx="459" ry="435" fill="black"/>
</g>
</mask>
<g mask="url(#mask1_132_6076)">
<path d="M613.266 439.552C573.284 439.552 540.873 427.292 540.873 412.169C537.581 378.343 573.284 384.786 613.266 384.786C653.247 384.786 688.947 378.344 685.658 412.169C684.189 427.275 653.247 439.552 613.266 439.552Z" fill="url(#paint0_linear_132_6076)"/>
<ellipse cx="613.265" cy="402.172" rx="27.6282" ry="72.6037" transform="rotate(90 613.265 402.172)" fill="url(#paint1_linear_132_6076)"/>
<ellipse cx="613.267" cy="402.174" rx="24.3778" ry="66.0034" transform="rotate(90 613.267 402.174)" fill="white"/>
<path d="M22.0035 239.552C-8.9102 239.552 -33.9707 230.073 -33.9707 218.38C-36.516 192.226 -8.91019 197.207 22.0035 197.207C52.9172 197.207 80.5208 192.226 77.9776 218.38C76.8419 230.06 52.9172 239.552 22.0035 239.552Z" fill="url(#paint2_linear_132_6076)"/>
<ellipse cx="22.0034" cy="210.65" rx="21.3621" ry="56.1373" transform="rotate(90 22.0034 210.65)" fill="url(#paint3_linear_132_6076)"/>
<ellipse cx="22.0046" cy="210.652" rx="18.849" ry="51.0339" transform="rotate(90 22.0046 210.652)" fill="white"/>
<path fill-rule="evenodd" clip-rule="evenodd" d="M613.037 191.38C621.184 190.645 628.105 184.027 631.457 172.121C637.438 150.881 629.799 120.855 614.395 105.055C606.843 97.3092 598.827 94.4208 591.912 95.9917L573.861 98.4939L576.887 111.223C576.443 112.388 576.038 113.616 575.674 114.906C569.694 136.146 577.332 166.172 592.736 181.972C593.157 182.404 593.58 182.821 594.004 183.222L596.787 194.93L613.037 191.38Z" fill="url(#paint4_linear_132_6076)"/>
<path fill-rule="evenodd" clip-rule="evenodd" d="M613.037 191.38C621.184 190.645 628.105 184.027 631.457 172.121C637.438 150.881 629.799 120.855 614.395 105.055C606.843 97.3092 598.827 94.4208 591.912 95.9917L573.861 98.4939L576.887 111.223C576.443 112.388 576.038 113.616 575.674 114.906C569.694 136.146 577.332 166.172 592.736 181.972C593.157 182.404 593.58 182.821 594.004 183.222L596.787 194.93L613.037 191.38Z" fill="url(#paint5_linear_132_6076)" fill-opacity="0.7"/>
<path fill-rule="evenodd" clip-rule="evenodd" d="M613.037 191.38C621.184 190.645 628.105 184.027 631.457 172.121C637.438 150.881 629.799 120.855 614.395 105.055C606.843 97.3092 598.827 94.4208 591.912 95.9917L573.861 98.4939L576.887 111.223C576.443 112.388 576.038 113.616 575.674 114.906C569.694 136.146 577.332 166.172 592.736 181.972C593.157 182.404 593.58 182.821 594.004 183.222L596.787 194.93L613.037 191.38Z" fill="url(#paint6_linear_132_6076)" fill-opacity="0.7"/>
<path d="M615.847 175.382C609.76 197.001 592.114 201.49 576.435 185.409C560.756 169.327 552.981 138.764 559.069 117.145C565.157 95.526 582.802 91.037 598.481 107.119C614.16 123.2 621.935 153.763 615.847 175.382Z" fill="url(#paint7_linear_132_6076)"/>
<path fill-rule="evenodd" clip-rule="evenodd" d="M599.694 218.36L590.109 212.827C576.065 204.718 563.67 208.161 559.575 221.31L540.287 283.235C534.035 303.309 549.379 336.093 570.822 348.473L618.21 375.832C639.504 388.126 654.828 373.358 648.847 346.308L630.331 262.556C626.349 244.546 613.871 226.545 599.694 218.36ZM590.109 212.144C575.805 203.885 563.18 207.392 559.009 220.784L539.722 282.71C533.354 303.155 548.982 336.546 570.822 349.155L618.21 376.515C639.898 389.036 655.506 373.995 649.415 346.444L630.898 262.692C626.843 244.348 614.133 226.014 599.694 217.678L590.109 212.144Z" fill="black"/>
<path fill-rule="evenodd" clip-rule="evenodd" d="M582.622 221.094C576.657 217.878 571.702 213.131 572.461 207.96C579.538 206.89 591.703 205.247 596.39 204.774C601.691 203.608 608.088 204.88 614.863 208.791L624.447 214.325C630.375 217.747 636.011 222.855 640.877 228.956C646.475 235.465 655.651 250.082 658.935 273.808L658.857 273.837L674.168 343.091C674.205 343.257 674.241 343.423 674.276 343.588C675.759 349.986 676.884 359.579 673.847 365.524C673.73 365.752 673.613 365.978 673.494 366.201C671.255 371.897 667.246 375.695 662.02 377.06C657.544 378.961 651.481 380.201 642.838 380.929C642.534 380.911 642.186 380.889 641.81 380.866C632.812 381.288 625.112 380.15 625.029 377.631C624.92 374.334 627.295 369.245 629.718 365.515L595.575 345.802C573.736 333.193 558.107 299.802 564.475 279.357L582.622 221.094Z" fill="url(#paint8_linear_132_6076)"/>
<path fill-rule="evenodd" clip-rule="evenodd" d="M582.622 221.094C576.657 217.878 571.702 213.131 572.461 207.96C579.538 206.89 591.703 205.247 596.39 204.774C601.691 203.608 608.088 204.88 614.863 208.791L624.447 214.325C630.375 217.747 636.011 222.855 640.877 228.956C646.475 235.465 655.651 250.082 658.935 273.808L658.857 273.837L674.168 343.091C674.205 343.257 674.241 343.423 674.276 343.588C675.759 349.986 676.884 359.579 673.847 365.524C673.73 365.752 673.613 365.978 673.494 366.201C671.255 371.897 667.246 375.695 662.02 377.06C657.544 378.961 651.481 380.201 642.838 380.929C642.534 380.911 642.186 380.889 641.81 380.866C632.812 381.288 625.112 380.15 625.029 377.631C624.92 374.334 627.295 369.245 629.718 365.515L595.575 345.802C573.736 333.193 558.107 299.802 564.475 279.357L582.622 221.094Z" fill="url(#paint9_linear_132_6076)" fill-opacity="0.7"/>
<path fill-rule="evenodd" clip-rule="evenodd" d="M582.622 221.094C576.657 217.878 571.702 213.131 572.461 207.96C579.538 206.89 591.703 205.247 596.39 204.774C601.691 203.608 608.088 204.88 614.863 208.791L624.447 214.325C630.375 217.747 636.011 222.855 640.877 228.956C646.475 235.465 655.651 250.082 658.935 273.808L658.857 273.837L674.168 343.091C674.205 343.257 674.241 343.423 674.276 343.588C675.759 349.986 676.884 359.579 673.847 365.524C673.73 365.752 673.613 365.978 673.494 366.201C671.255 371.897 667.246 375.695 662.02 377.06C657.544 378.961 651.481 380.201 642.838 380.929C642.534 380.911 642.186 380.889 641.81 380.866C632.812 381.288 625.112 380.15 625.029 377.631C624.92 374.334 627.295 369.245 629.718 365.515L595.575 345.802C573.736 333.193 558.107 299.802 564.475 279.357L582.622 221.094Z" fill="url(#paint10_linear_132_6076)" fill-opacity="0.7"/>
<path d="M559.009 220.784C563.18 207.392 575.805 203.885 590.109 212.144L599.694 217.678C614.133 226.014 626.843 244.348 630.898 262.692L649.415 346.444C655.506 373.995 639.898 389.036 618.21 376.515L570.822 349.155C548.982 336.546 533.354 303.155 539.722 282.71L559.009 220.784Z" fill="url(#paint11_linear_132_6076)"/>
<path fill-rule="evenodd" clip-rule="evenodd" d="M20.5978 47.6653C14.298 47.0971 8.94745 41.9802 6.35533 32.7748C1.73089 16.352 7.63727 -6.86458 19.5476 -19.0809C25.3867 -25.07 31.5849 -27.3033 36.9316 -26.0887L50.8889 -24.154L48.5491 -14.3118C48.8924 -13.411 49.2056 -12.4617 49.4865 -11.4643C54.1109 4.95848 48.2045 28.175 36.2942 40.3913C35.9686 40.7252 35.642 41.0475 35.3144 41.3581L33.1622 50.4107L20.5978 47.6653Z" fill="url(#paint12_linear_132_6076)"/>
<path fill-rule="evenodd" clip-rule="evenodd" d="M20.5978 47.6653C14.298 47.0971 8.94745 41.9802 6.35533 32.7748C1.73089 16.352 7.63727 -6.86458 19.5476 -19.0809C25.3867 -25.07 31.5849 -27.3033 36.9316 -26.0887L50.8889 -24.154L48.5491 -14.3118C48.8924 -13.411 49.2056 -12.4617 49.4865 -11.4643C54.1109 4.95848 48.2045 28.175 36.2942 40.3913C35.9686 40.7252 35.642 41.0475 35.3144 41.3581L33.1622 50.4107L20.5978 47.6653Z" fill="url(#paint13_linear_132_6076)" fill-opacity="0.7"/>
<path fill-rule="evenodd" clip-rule="evenodd" d="M20.5978 47.6653C14.298 47.0971 8.94745 41.9802 6.35533 32.7748C1.73089 16.352 7.63727 -6.86458 19.5476 -19.0809C25.3867 -25.07 31.5849 -27.3033 36.9316 -26.0887L50.8889 -24.154L48.5491 -14.3118C48.8924 -13.411 49.2056 -12.4617 49.4865 -11.4643C54.1109 4.95848 48.2045 28.175 36.2942 40.3913C35.9686 40.7252 35.642 41.0475 35.3144 41.3581L33.1622 50.4107L20.5978 47.6653Z" fill="url(#paint14_linear_132_6076)" fill-opacity="0.7"/>
<path d="M18.4246 35.296C23.1316 52.012 36.775 55.4829 48.8979 43.0486C61.0209 30.6142 67.0327 6.98319 62.3257 -9.73278C57.6187 -26.4488 43.9753 -29.9197 31.8524 -17.4853C19.7294 -5.05096 13.7176 18.5801 18.4246 35.296Z" fill="url(#paint15_linear_132_6076)"/>
<path fill-rule="evenodd" clip-rule="evenodd" d="M30.9055 68.5268L38.3161 64.2482C49.1755 57.9786 58.7591 60.6411 61.9256 70.8074L76.8388 118.688C81.6731 134.209 69.8086 159.558 53.2293 169.13L16.5885 190.284C0.124534 199.79 -11.7242 188.371 -7.10006 167.456L7.21686 102.699C10.2956 88.7737 19.9439 74.8554 30.9055 68.5268ZM38.3161 63.7204C49.3766 57.3347 59.1377 60.0465 62.3628 70.401L77.276 118.282C82.1999 134.09 70.1156 159.908 53.2293 169.658L16.5885 190.812C-0.180358 200.494 -12.2485 188.864 -7.53874 167.561L6.77818 102.804C9.91391 88.6208 19.7409 74.4448 30.9055 67.999L38.3161 63.7204Z" fill="black"/>
<path fill-rule="evenodd" clip-rule="evenodd" d="M44.1035 70.6397C48.7155 68.1529 52.547 64.4831 51.9597 60.4842C46.4879 59.6573 37.0818 58.3871 33.4582 58.0212C29.3592 57.1192 24.4127 58.103 19.1747 61.1272L11.7641 65.4057C7.18242 68.0509 2.826 71.998 -0.935163 76.7132C-5.26282 81.7434 -12.362 93.0469 -14.902 111.398L-14.8414 111.42L-26.6801 164.968C-26.7089 165.098 -26.7371 165.228 -26.7646 165.358C-27.9111 170.305 -28.7797 177.718 -26.4319 182.314C-26.3415 182.491 -26.2505 182.665 -26.1586 182.838C-24.4272 187.241 -21.3284 190.176 -17.2896 191.232C-13.8284 192.703 -9.14013 193.662 -2.45538 194.225C-2.21968 194.211 -1.94952 194.194 -1.65743 194.176C5.29849 194.501 11.25 193.621 11.3145 191.674C11.3988 189.125 9.56234 185.191 7.68895 182.306L34.088 167.064C50.9742 157.315 63.0585 131.497 58.1347 115.689L44.1035 70.6397Z" fill="url(#paint16_linear_132_6076)"/>
<path fill-rule="evenodd" clip-rule="evenodd" d="M44.1035 70.6397C48.7155 68.1529 52.547 64.4831 51.9597 60.4842C46.4879 59.6573 37.0818 58.3871 33.4582 58.0212C29.3592 57.1192 24.4127 58.103 19.1747 61.1272L11.7641 65.4057C7.18242 68.0509 2.826 71.998 -0.935163 76.7132C-5.26282 81.7434 -12.362 93.0469 -14.902 111.398L-14.8414 111.42L-26.6801 164.968C-26.7089 165.098 -26.7371 165.228 -26.7646 165.358C-27.9111 170.305 -28.7797 177.718 -26.4319 182.314C-26.3415 182.491 -26.2505 182.665 -26.1586 182.838C-24.4272 187.241 -21.3284 190.176 -17.2896 191.232C-13.8284 192.703 -9.14013 193.662 -2.45538 194.225C-2.21968 194.211 -1.94952 194.194 -1.65743 194.176C5.29849 194.501 11.25 193.621 11.3145 191.674C11.3988 189.125 9.56234 185.191 7.68895 182.306L34.088 167.064C50.9742 157.315 63.0585 131.497 58.1347 115.689L44.1035 70.6397Z" fill="url(#paint17_linear_132_6076)" fill-opacity="0.7"/>
<path fill-rule="evenodd" clip-rule="evenodd" d="M44.1035 70.6397C48.7155 68.1529 52.547 64.4831 51.9597 60.4842C46.4879 59.6573 37.0818 58.3871 33.4582 58.0212C29.3592 57.1192 24.4127 58.103 19.1747 61.1272L11.7641 65.4057C7.18242 68.0509 2.826 71.998 -0.935163 76.7132C-5.26282 81.7434 -12.362 93.0469 -14.902 111.398L-14.8414 111.42L-26.6801 164.968C-26.7089 165.098 -26.7371 165.228 -26.7646 165.358C-27.9111 170.305 -28.7797 177.718 -26.4319 182.314C-26.3415 182.491 -26.2505 182.665 -26.1586 182.838C-24.4272 187.241 -21.3284 190.176 -17.2896 191.232C-13.8284 192.703 -9.14013 193.662 -2.45538 194.225C-2.21968 194.211 -1.94952 194.194 -1.65743 194.176C5.29849 194.501 11.25 193.621 11.3145 191.674C11.3988 189.125 9.56234 185.191 7.68895 182.306L34.088 167.064C50.9742 157.315 63.0585 131.497 58.1347 115.689L44.1035 70.6397Z" fill="url(#paint18_linear_132_6076)" fill-opacity="0.7"/>
<path d="M62.3628 70.401C59.1377 60.0465 49.3766 57.3347 38.3161 63.7204L30.9055 67.999C19.7409 74.4448 9.91391 88.6208 6.77818 102.804L-7.53874 167.561C-12.2485 188.864 -0.180351 200.494 16.5885 190.812L53.2293 169.658C70.1156 159.908 82.1999 134.09 77.276 118.282L62.3628 70.401Z" fill="url(#paint19_linear_132_6076)"/>
<path d="M-95 -17.9997H138L72.76 210H-29.76L-95 -17.9997Z" fill="url(#paint20_linear_132_6076)"/>
<path d="M463 106H764L679.72 402H547.28L463 106Z" fill="url(#paint21_linear_132_6076)"/>
</g>
<path d="M356.248 144.034C413.557 207.141 430.293 281.392 401.701 311.257C369.495 340.505 296.928 313.056 239.618 249.949C182.309 186.841 163.045 112.402 195.252 83.1543C227.458 53.9068 298.939 80.9268 356.248 144.034Z" fill="url(#paint22_linear_132_6076)"/>
<path d="M342.578 157.496C399.887 220.603 452.981 274.187 383.938 328.435C347.081 357.394 275.073 333.95 217.763 270.843C160.454 207.736 144.936 135.381 176.403 99.9041C240.363 28.3797 294.715 104.793 342.578 157.496Z" fill="url(#paint23_linear_132_6076)"/>
<path d="M342.604 157.53C399.913 220.637 453.007 274.221 383.964 328.469C347.107 357.428 275.099 333.984 217.79 270.877C160.48 207.77 144.962 135.415 176.429 99.9379C240.389 28.4134 293.541 104.786 342.604 157.53Z" fill="url(#paint24_linear_132_6076)" fill-opacity="0.6"/>
<path d="M342.591 157.515C399.9 220.622 452.994 274.206 383.951 328.454C347.094 357.413 275.086 333.969 217.777 270.862C160.467 207.755 144.949 135.4 176.416 99.923C240.376 28.3985 261.344 110.318 342.591 157.515Z" fill="url(#paint25_linear_132_6076)" fill-opacity="0.6"/>
<ellipse cx="306.969" cy="188.759" rx="66.3322" ry="146.472" transform="rotate(-42.2434 306.969 188.759)" fill="url(#paint26_linear_132_6076)"/>
<ellipse cx="306.969" cy="188.759" rx="66.3322" ry="146.472" transform="rotate(-42.2434 306.969 188.759)" fill="url(#paint27_linear_132_6076)" fill-opacity="0.7"/>
<ellipse cx="306.969" cy="188.759" rx="66.3322" ry="146.472" transform="rotate(-42.2434 306.969 188.759)" fill="url(#paint28_linear_132_6076)" fill-opacity="0.7"/>
<ellipse cx="310.751" cy="185.703" rx="61.4762" ry="143.285" transform="rotate(-42.2434 310.751 185.703)" fill="white"/>
<path d="M360.519 231.103C360.447 231.126 360.375 231.149 360.303 231.172C359.516 231.261 358.733 231.357 357.948 231.45C357.132 231.52 356.072 231.166 355.018 230.812C353.397 230.265 351.606 229.302 349.88 228.495C342.367 224.985 334.793 221.299 327.222 217.625C323.624 215.878 320.089 213.241 316.56 209.601C315.28 208.281 314.117 206.911 313.069 205.501C306.51 196.688 299.973 187.869 293.507 179.042C293.363 178.846 293.233 178.648 293.097 178.451C296.811 178.027 300.526 177.603 304.241 177.178C307.197 181.193 310.143 185.209 313.108 189.218C316.147 193.331 319.214 197.438 322.251 201.551C322.658 202.101 322.994 202.35 323.457 202.574C329.636 205.571 335.822 208.586 341.955 211.451C342.971 211.925 343.986 212.391 345.015 212.905C345.525 213.16 345.779 213.157 345.883 212.832C347.044 209.19 348.28 205.614 349.326 201.873C349.543 201.1 349.761 200.326 350.013 199.582C350.109 199.303 350.042 199.012 349.636 198.462C345.641 193.071 341.801 187.658 337.734 182.275C335.676 179.549 333.637 176.824 331.639 174.091C335.353 173.667 339.063 173.24 342.778 172.815C346.354 177.58 349.952 182.338 353.455 187.114C356.495 191.26 359.538 195.41 362.555 199.56C366.613 205.141 368.274 209.627 367.404 212.841C365.902 218.374 364.175 223.708 362.375 228.984C362.077 229.853 361.625 230.575 360.81 230.928C360.639 230.903 360.493 230.908 360.524 231.109L360.519 231.103Z" fill="#20BCFF"/>
<path d="M321.026 189.8C318.43 186.352 315.963 182.89 313.433 179.431C310.014 174.753 306.438 170.1 303.009 165.424C302.607 164.877 302.265 164.617 301.798 164.391C294.585 160.877 287.399 157.435 280.232 154.053C279.71 153.807 279.501 153.86 279.397 154.17C277.945 158.501 276.572 162.898 275.269 167.357C275.159 167.735 275.322 168.108 275.785 168.737C281.398 176.372 287.034 184.007 292.71 191.634C292.977 191.995 293.235 192.357 293.497 192.719C293.509 192.788 293.518 192.858 293.53 192.928C289.849 193.341 286.165 193.75 282.485 194.163C280.138 191.015 277.772 187.862 275.442 184.708C271.191 178.955 266.931 173.202 262.73 167.446C258.646 161.849 257 157.339 257.883 154.12C259.117 149.631 260.45 145.224 261.926 140.943C262.274 139.931 262.585 138.886 262.951 137.89C263.273 137.015 263.724 136.267 264.676 136.036C264.783 136.032 264.87 136.007 264.838 135.858C264.91 135.839 264.978 135.816 265.05 135.797C265.843 135.711 266.635 135.625 267.429 135.538C267.468 135.53 267.511 135.529 267.563 135.542C267.734 135.675 267.85 135.692 267.946 135.67C269.034 135.711 270.31 136.099 271.71 136.749C280.626 140.909 289.58 145.176 298.604 149.64C303.166 151.897 307.49 155.626 311.474 160.515C311.495 160.662 311.599 160.796 311.779 160.909C316.812 167.733 322.015 174.535 326.97 181.368C328.708 183.765 330.453 186.161 332.193 188.558C331.098 188.682 330.009 188.813 328.911 188.933C326.284 189.223 323.656 189.513 321.026 189.8Z" fill="#24FFA3"/>
<path d="M304.239 177.175C300.524 177.599 296.809 178.024 293.095 178.448C292.94 178.138 293.178 178.211 293.308 178.197C296.773 177.797 300.244 177.408 303.717 177.018C303.849 177.003 303.947 176.891 304.239 177.175Z" fill="#20BCFF"/>
<path d="M342.789 172.814C339.074 173.238 335.364 173.666 331.65 174.09C331.476 173.763 331.728 173.854 331.854 173.836C335.319 173.436 338.79 173.043 342.263 172.658C342.397 172.642 342.496 172.534 342.787 172.814L342.789 172.814Z" fill="#20BCFF"/>
<path d="M282.479 194.167C286.16 193.754 289.843 193.344 293.524 192.931C293.568 192.926 293.613 192.925 293.657 192.924C293.77 193.235 293.505 193.146 293.354 193.167C289.929 193.562 286.502 193.95 283.067 194.331C282.918 194.348 282.822 194.497 282.482 194.17L282.479 194.167Z" fill="#24FFA3"/>
<path d="M321.027 189.8C323.654 189.51 326.284 189.223 328.912 188.933C330.007 188.809 331.102 188.685 332.194 188.558C332.326 188.886 332.053 188.79 331.902 188.807C328.478 189.202 325.048 189.591 321.612 189.972C321.467 189.989 321.376 190.155 321.03 189.803L321.027 189.8Z" fill="#24FFA3"/>
<path d="M267.416 135.534C266.624 135.62 265.832 135.706 265.037 135.792C265.596 135.389 266.398 135.313 267.416 135.534Z" fill="#72FFC4"/>
<path d="M357.95 231.448C358.738 231.359 359.521 231.263 360.306 231.17C359.749 231.572 358.964 231.665 357.95 231.448Z" fill="#6FD4FF"/>
<path d="M311.771 160.908C311.59 160.794 311.486 160.664 311.465 160.514C311.666 160.625 311.776 160.755 311.771 160.908Z" fill="#A7FFDA"/>
<path d="M360.521 231.102C360.491 230.9 360.636 230.895 360.807 230.92C360.819 231.102 360.707 231.144 360.521 231.102Z" fill="#6FD4FF"/>
<path d="M264.827 135.855C264.862 136.002 264.776 136.027 264.668 136.032C264.585 135.835 264.685 135.823 264.827 135.855Z" fill="#72FFC4"/>
<path d="M267.936 135.668C267.841 135.69 267.726 135.673 267.557 135.541C267.636 135.488 267.745 135.494 267.936 135.668Z" fill="#72FFC4"/>
<path d="M293.655 192.921C293.612 192.926 293.566 192.927 293.523 192.928C293.512 192.859 293.503 192.79 293.492 192.721C293.544 192.786 293.601 192.853 293.653 192.917L293.655 192.921Z" fill="#4AFFB3"/>
<defs>
<filter id="filter0_f_132_6076" x="50" y="-87" width="1041" height="1034" filterUnits="userSpaceOnUse" color-interpolation-filters="sRGB">
<feFlood flood-opacity="0" result="BackgroundImageFix"/>
<feBlend mode="normal" in="SourceGraphic" in2="BackgroundImageFix" result="shape"/>
<feGaussianBlur stdDeviation="175" result="effect1_foregroundBlur_132_6076"/>
</filter>
<filter id="filter1_f_132_6076" x="-537" y="-502" width="1051" height="1033" filterUnits="userSpaceOnUse" color-interpolation-filters="sRGB">
<feFlood flood-opacity="0" result="BackgroundImageFix"/>
<feBlend mode="normal" in="SourceGraphic" in2="BackgroundImageFix" result="shape"/>
<feGaussianBlur stdDeviation="175" result="effect1_foregroundBlur_132_6076"/>
</filter>
<linearGradient id="paint0_linear_132_6076" x1="810.699" y1="450.828" x2="521.395" y2="128.106" gradientUnits="userSpaceOnUse">
<stop stop-color="#15A066"/>
<stop offset="1" stop-color="#1580AD"/>
</linearGradient>
<linearGradient id="paint1_linear_132_6076" x1="653.895" y1="263.565" x2="438.949" y2="425.757" gradientUnits="userSpaceOnUse">
<stop stop-color="#24FFA3"/>
<stop offset="1" stop-color="#20BCFF"/>
</linearGradient>
<linearGradient id="paint2_linear_132_6076" x1="174.659" y1="248.271" x2="-49.0311" y2="-1.25846" gradientUnits="userSpaceOnUse">
<stop stop-color="#15A066"/>
<stop offset="1" stop-color="#1580AD"/>
</linearGradient>
<linearGradient id="paint3_linear_132_6076" x1="53.4183" y1="103.478" x2="-112.778" y2="228.885" gradientUnits="userSpaceOnUse">
<stop stop-color="#24FFA3"/>
<stop offset="1" stop-color="#20BCFF"/>
</linearGradient>
<linearGradient id="paint4_linear_132_6076" x1="519.647" y1="-27.1418" x2="681.687" y2="290.339" gradientUnits="userSpaceOnUse">
<stop stop-color="#24FFA3"/>
<stop offset="1" stop-color="#1580AD"/>
</linearGradient>
<linearGradient id="paint5_linear_132_6076" x1="618.372" y1="191.975" x2="619.186" y2="161.039" gradientUnits="userSpaceOnUse">
<stop stop-color="#20BCFF"/>
<stop offset="1" stop-color="#20BCFF" stop-opacity="0"/>
</linearGradient>
<linearGradient id="paint6_linear_132_6076" x1="589.064" y1="95.9107" x2="602.09" y2="117.077" gradientUnits="userSpaceOnUse">
<stop stop-color="#24FFA3"/>
<stop offset="1" stop-color="#24FFA3" stop-opacity="0"/>
</linearGradient>
<linearGradient id="paint7_linear_132_6076" x1="535.778" y1="28.2885" x2="507.243" y2="245.855" gradientUnits="userSpaceOnUse">
<stop stop-color="#24FFA3"/>
<stop offset="1" stop-color="#20BCFF"/>
</linearGradient>
<linearGradient id="paint8_linear_132_6076" x1="744.535" y1="470.478" x2="523.837" y2="111.499" gradientUnits="userSpaceOnUse">
<stop stop-color="#1580AD"/>
<stop offset="1" stop-color="#24FFA3"/>
</linearGradient>
<linearGradient id="paint9_linear_132_6076" x1="665.578" y1="375.962" x2="651.738" y2="306.763" gradientUnits="userSpaceOnUse">
<stop stop-color="#20BCFF"/>
<stop offset="1" stop-color="#20BCFF" stop-opacity="0"/>
</linearGradient>
<linearGradient id="paint10_linear_132_6076" x1="584.169" y1="205.001" x2="627.316" y2="237.564" gradientUnits="userSpaceOnUse">
<stop stop-color="#24FFA3"/>
<stop offset="1" stop-color="#24FFA3" stop-opacity="0"/>
</linearGradient>
<linearGradient id="paint11_linear_132_6076" x1="486.013" y1="127.481" x2="488.401" y2="464.964" gradientUnits="userSpaceOnUse">
<stop stop-color="#24FFA3"/>
<stop offset="1" stop-color="#20BCFF"/>
</linearGradient>
<linearGradient id="paint12_linear_132_6076" x1="92.8068" y1="-121.296" x2="-32.4827" y2="124.181" gradientUnits="userSpaceOnUse">
<stop stop-color="#24FFA3"/>
<stop offset="1" stop-color="#1580AD"/>
</linearGradient>
<linearGradient id="paint13_linear_132_6076" x1="16.4727" y1="48.1255" x2="15.8432" y2="24.2058" gradientUnits="userSpaceOnUse">
<stop stop-color="#20BCFF"/>
<stop offset="1" stop-color="#20BCFF" stop-opacity="0"/>
</linearGradient>
<linearGradient id="paint14_linear_132_6076" x1="39.1334" y1="-26.1513" x2="29.062" y2="-9.78523" gradientUnits="userSpaceOnUse">
<stop stop-color="#24FFA3"/>
<stop offset="1" stop-color="#24FFA3" stop-opacity="0"/>
</linearGradient>
<linearGradient id="paint15_linear_132_6076" x1="80.3343" y1="-78.4369" x2="102.397" y2="89.7859" gradientUnits="userSpaceOnUse">
<stop stop-color="#24FFA3"/>
<stop offset="1" stop-color="#20BCFF"/>
</linearGradient>
<linearGradient id="paint16_linear_132_6076" x1="-81.0881" y1="263.464" x2="89.5556" y2="-14.0992" gradientUnits="userSpaceOnUse">
<stop stop-color="#1580AD"/>
<stop offset="1" stop-color="#24FFA3"/>
</linearGradient>
<linearGradient id="paint17_linear_132_6076" x1="-20.0383" y1="190.384" x2="-9.33734" y2="136.879" gradientUnits="userSpaceOnUse">
<stop stop-color="#20BCFF"/>
<stop offset="1" stop-color="#20BCFF" stop-opacity="0"/>
</linearGradient>
<linearGradient id="paint18_linear_132_6076" x1="42.9076" y1="58.1964" x2="9.54606" y2="83.3747" gradientUnits="userSpaceOnUse">
<stop stop-color="#24FFA3"/>
<stop offset="1" stop-color="#24FFA3" stop-opacity="0"/>
</linearGradient>
<linearGradient id="paint19_linear_132_6076" x1="118.804" y1="-1.74113" x2="116.957" y2="259.201" gradientUnits="userSpaceOnUse">
<stop stop-color="#24FFA3"/>
<stop offset="1" stop-color="#20BCFF"/>
</linearGradient>
<linearGradient id="paint20_linear_132_6076" x1="21.5" y1="71.0772" x2="21.5" y2="273.693" gradientUnits="userSpaceOnUse">
<stop stop-color="white" stop-opacity="0"/>
<stop offset="1" stop-color="white"/>
</linearGradient>
<linearGradient id="paint21_linear_132_6076" x1="613.5" y1="221.644" x2="613.5" y2="484.689" gradientUnits="userSpaceOnUse">
<stop stop-color="white" stop-opacity="0"/>
<stop offset="1" stop-color="white"/>
</linearGradient>
<linearGradient id="paint22_linear_132_6076" x1="80.0594" y1="-85.1329" x2="530.206" y2="466.558" gradientUnits="userSpaceOnUse">
<stop stop-color="#1580AD"/>
<stop offset="1" stop-color="#15A066"/>
</linearGradient>
<linearGradient id="paint23_linear_132_6076" x1="63.7861" y1="-69.2769" x2="515.921" y2="480.949" gradientUnits="userSpaceOnUse">
<stop stop-color="#1580AD"/>
<stop offset="1" stop-color="#15A066"/>
</linearGradient>
<linearGradient id="paint24_linear_132_6076" x1="175.821" y1="99.257" x2="201.631" y2="129.558" gradientUnits="userSpaceOnUse">
<stop stop-color="#20BCFF"/>
<stop offset="1" stop-color="#20BCFF" stop-opacity="0"/>
</linearGradient>
<linearGradient id="paint25_linear_132_6076" x1="395.043" y1="320.758" x2="360.174" y2="288.479" gradientUnits="userSpaceOnUse">
<stop stop-color="#24FFA3"/>
<stop offset="1" stop-color="#24FFA3" stop-opacity="0"/>
</linearGradient>
<linearGradient id="paint26_linear_132_6076" x1="351.978" y1="-259.608" x2="290.622" y2="557.601" gradientUnits="userSpaceOnUse">
<stop stop-color="#24FFA3"/>
<stop offset="1" stop-color="#20BCFF"/>
</linearGradient>
<linearGradient id="paint27_linear_132_6076" x1="310.995" y1="36.8302" x2="304.691" y2="65.8775" gradientUnits="userSpaceOnUse">
<stop stop-color="#20BCFF"/>
<stop offset="1" stop-color="#20BCFF" stop-opacity="0"/>
</linearGradient>
<linearGradient id="paint28_linear_132_6076" x1="308.582" y1="339.635" x2="300.75" y2="298.068" gradientUnits="userSpaceOnUse">
<stop stop-color="#24FFA3"/>
<stop offset="1" stop-color="#24FFA3" stop-opacity="0"/>
</linearGradient>
</defs>
</svg>
