<svg width="302" height="69" viewBox="0 0 302 69" fill="none" xmlns="http://www.w3.org/2000/svg">
<path d="M31.1987 10.4723V0.577148H0V68.5624H31.1987V58.6673C24.8076 58.6673 18.6782 56.1283 14.1592 51.6092C9.64003 47.09 7.1012 40.9609 7.1012 34.5698C7.1012 28.1787 9.64003 22.0493 14.1592 17.5303C18.6782 13.0111 24.8076 10.4723 31.1987 10.4723Z" fill="#606060"/>
<path d="M31.1976 10.4743V58.6693C37.5887 58.6693 43.7181 56.1304 48.2372 51.6112C52.7564 47.0921 55.2951 40.9629 55.2951 34.5718C55.2951 28.1808 52.7564 22.0514 48.2372 17.5323C43.7181 13.0132 37.5887 10.4743 31.1976 10.4743Z" fill="#606060"/>
<path d="M72.8085 16.5295H79.7933V50.1729H72.8085V16.5295Z" fill="#606060"/>
<path d="M83.6954 38.647C83.6954 36.2265 84.4142 33.8606 85.7604 31.8489C87.1066 29.8373 89.0197 28.2706 91.2574 27.3475C93.4951 26.4246 95.9563 26.1866 98.3293 26.6639C100.702 27.1412 102.88 28.3123 104.587 30.0287C106.293 31.7453 107.452 33.9297 107.916 36.3055C108.379 38.6812 108.128 41.141 107.192 43.3734C106.256 45.6055 104.678 47.5098 102.659 48.8443C100.64 50.1791 98.2694 50.8841 95.849 50.8704C94.2436 50.883 92.6518 50.5749 91.1671 49.964C89.6823 49.3533 88.3343 48.4522 87.2023 47.314C86.0703 46.1754 85.1771 44.8223 84.5748 43.334C83.9727 41.8458 83.6738 40.2523 83.6954 38.647ZM101.204 38.647C101.176 37.6035 100.842 36.5911 100.242 35.7369C99.6424 34.8824 98.8042 34.2238 97.8319 33.8433C96.8599 33.4629 95.7973 33.3774 94.777 33.5979C93.7566 33.8182 92.8238 34.3344 92.0953 35.0822C91.3668 35.8298 90.8749 36.7755 90.6812 37.8014C90.4874 38.8272 90.6004 39.8873 91.0059 40.8491C91.4115 41.8109 92.0916 42.6321 92.9615 43.2092C93.8311 43.7866 94.8515 44.0947 95.8955 44.0951C96.6063 44.1091 97.3123 43.9762 97.9693 43.7047C98.6263 43.4334 99.2203 43.0295 99.7141 42.5182C100.208 42.0069 100.591 41.399 100.839 40.7331C101.088 40.067 101.196 39.3569 101.157 38.647H101.204Z" fill="#606060"/>
<path d="M135.64 27.1193V49.0282C135.64 56.7581 129.587 60.0409 123.464 60.0409C121.304 60.2181 119.137 59.789 117.208 58.8018C115.279 57.8146 113.664 56.3085 112.544 54.4531L118.434 51.0538C118.912 52.0163 119.671 52.8103 120.611 53.3302C121.551 53.8501 122.627 54.0712 123.696 53.9641C124.377 54.048 125.068 53.9804 125.72 53.7662C126.372 53.5518 126.968 53.1963 127.467 52.7246C127.965 52.2529 128.353 51.6771 128.603 51.038C128.853 50.3991 128.958 49.7127 128.912 49.0282V46.9095C128.099 47.8951 127.067 48.6774 125.9 49.1947C124.732 49.712 123.459 49.95 122.183 49.8897C119.095 49.8897 116.135 48.6632 113.951 46.4799C111.768 44.297 110.542 41.3359 110.542 38.2484C110.542 35.1609 111.768 32.2 113.951 30.0168C116.135 27.8336 119.095 26.6071 122.183 26.6071C123.459 26.5468 124.732 26.7847 125.9 27.3021C127.067 27.8194 128.099 28.6017 128.912 29.5872V27.259L135.64 27.1193ZM128.912 38.1785C128.958 37.0647 128.67 35.9623 128.085 35.0133C127.5 34.0643 126.645 33.312 125.628 32.8531C124.612 32.3942 123.482 32.2498 122.383 32.4384C121.285 32.627 120.267 33.1399 119.462 33.9113C118.658 34.6826 118.102 35.6773 117.867 36.7671C117.631 37.857 117.728 38.992 118.143 40.0267C118.558 41.0614 119.273 41.9482 120.197 42.5731C121.12 43.198 122.209 43.5326 123.324 43.5335C124.051 43.5859 124.782 43.4851 125.468 43.2378C126.154 42.9903 126.781 42.6018 127.307 42.097C127.834 41.5925 128.249 40.9829 128.525 40.308C128.801 39.633 128.933 38.9075 128.912 38.1785Z" fill="#606060"/>
<path d="M139.582 38.6473C139.582 36.2287 140.3 33.8646 141.644 31.8539C142.988 29.8432 144.899 28.2765 147.133 27.3522C149.368 26.4277 151.827 26.1869 154.199 26.6605C156.571 27.1341 158.749 28.3005 160.457 30.0122C162.166 31.7242 163.328 33.9044 163.797 36.2769C164.266 38.6496 164.021 41.108 163.092 43.3411C162.163 45.5744 160.593 47.4817 158.58 48.822C156.567 50.1624 154.201 50.8753 151.782 50.8707C150.174 50.8863 148.579 50.5806 147.09 49.9715C145.601 49.3624 144.249 48.4623 143.113 47.3238C141.976 46.1853 141.079 44.8314 140.472 43.3415C139.866 41.8517 139.564 40.2557 139.582 38.6473ZM157.091 38.6473C157.063 37.6028 156.728 36.5896 156.127 35.7347C155.527 34.8799 154.687 34.2213 153.714 33.8415C152.74 33.4618 151.676 33.3778 150.655 33.6001C149.634 33.8222 148.702 34.341 147.974 35.0909C147.247 35.8408 146.756 36.7889 146.566 37.8161C146.374 38.8433 146.491 39.9041 146.9 40.8654C147.309 41.827 147.993 42.6463 148.865 43.2209C149.738 43.7953 150.761 44.0996 151.806 44.0954C152.517 44.1094 153.223 43.9765 153.88 43.705C154.537 43.4337 155.131 43.0298 155.624 42.5185C156.118 42.0072 156.501 41.3993 156.75 40.7334C156.998 40.0673 157.106 39.3572 157.068 38.6473H157.091Z" fill="#606060"/>
<path d="M167.215 20.9517C167.215 20.1322 167.458 19.3308 167.913 18.6493C168.369 17.9678 169.016 17.4366 169.773 17.1229C170.53 16.8092 171.364 16.7272 172.168 16.8871C172.971 17.047 173.71 17.4417 174.29 18.0213C174.869 18.6009 175.264 19.3394 175.424 20.1431C175.584 20.9471 175.501 21.7804 175.188 22.5378C174.874 23.2949 174.343 23.9422 173.661 24.3976C172.98 24.853 172.179 25.0961 171.359 25.0961C170.264 25.0839 169.217 24.6434 168.442 23.8688C167.667 23.0942 167.227 22.0472 167.215 20.9517ZM167.89 27.1216H174.875V50.1714H167.89V27.1216Z" fill="#606060"/>
<path d="M204.773 38.6445C204.851 40.1774 204.626 41.7108 204.109 43.1562C203.593 44.6016 202.795 45.9305 201.763 47.0665C200.731 48.2027 199.484 49.1233 198.095 49.7757C196.705 50.428 195.201 50.7992 193.667 50.8678C192.366 50.9545 191.062 50.7461 189.853 50.2583C188.643 49.7703 187.56 49.0157 186.683 48.0506V59.4358H179.698V27.1196H186.683V29.2849C187.561 28.3226 188.645 27.5715 189.855 27.0877C191.064 26.6036 192.368 26.3997 193.667 26.4909C195.195 26.5596 196.693 26.9287 198.078 27.5766C199.463 28.2246 200.706 29.1391 201.737 30.2676C202.769 31.3961 203.568 32.7167 204.088 34.1542C204.609 35.5914 204.842 37.1171 204.773 38.6445ZM197.788 38.6445C197.761 37.563 197.415 36.5139 196.794 35.6284C196.172 34.743 195.303 34.0604 194.296 33.6666C193.289 33.2727 192.187 33.1852 191.13 33.4145C190.073 33.6438 189.107 34.1803 188.354 34.9563C187.6 35.7323 187.092 36.7134 186.894 37.777C186.696 38.8403 186.816 39.9385 187.239 40.9341C187.662 41.9294 188.37 42.7778 189.273 43.3729C190.176 43.968 191.235 44.2831 192.317 44.2789C193.058 44.3103 193.797 44.1848 194.486 43.9105C195.175 43.6363 195.798 43.2195 196.315 42.6875C196.832 42.1555 197.23 41.5201 197.484 40.8235C197.738 40.1266 197.841 39.3842 197.788 38.6445Z" fill="#606060"/>
<path d="M226.027 43.258C226.027 48.5664 221.37 50.8248 216.434 50.8248C214.421 51.006 212.4 50.5792 210.632 49.5997C208.864 48.6202 207.43 47.1329 206.516 45.3301L212.523 41.9309C212.761 42.7616 213.277 43.4855 213.984 43.9814C214.692 44.4773 215.549 44.715 216.411 44.6549C218.064 44.6549 218.902 44.1427 218.902 43.2114C218.902 40.6736 207.564 42.024 207.564 34.0381C207.564 29.009 211.801 26.4945 216.597 26.4945C218.42 26.4128 220.232 26.8265 221.838 27.6915C223.445 28.5564 224.788 29.8405 225.724 31.4071L219.717 34.5736C219.452 33.9729 219.018 33.4621 218.469 33.1026C217.919 32.7431 217.277 32.5505 216.62 32.548C215.41 32.548 214.688 33.0136 214.688 33.8285C214.688 36.4828 226.027 34.7366 226.027 43.258Z" fill="#606060"/>
<path d="M251.344 27.1181V50.1679H244.359V48.0026C243.565 48.9612 242.557 49.7195 241.419 50.217C240.278 50.7146 239.037 50.9369 237.794 50.8664C233.137 50.8664 229.156 47.537 229.156 41.3205V27.1181H236.14V40.2728C236.085 40.8227 236.15 41.378 236.331 41.9005C236.513 42.4227 236.804 42.8995 237.186 43.2981C237.57 43.6965 238.036 44.0071 238.55 44.2085C239.065 44.4096 239.617 44.4967 240.168 44.4636C242.683 44.4636 244.452 42.9736 244.452 39.8071V27.1181H251.344Z" fill="#606060"/>
<path d="M290.917 36.016V50.1718H283.933V36.6214C283.933 34.2931 282.838 32.8496 280.626 32.8496C278.415 32.8496 277.018 34.4561 277.018 37.1801V50.1718H270.033V36.6214C270.033 34.2931 268.939 32.8496 266.727 32.8496C264.515 32.8496 263.118 34.4561 263.118 37.1801V50.1718H256.133V27.1221H263.118V29.2408C263.842 28.3048 264.785 27.5635 265.868 27.0839C266.948 26.6042 268.133 26.4012 269.311 26.4934C270.491 26.4317 271.67 26.6785 272.727 27.2091C273.784 27.7397 274.685 28.5362 275.341 29.5202C276.11 28.492 277.125 27.6752 278.293 27.146C279.46 26.6166 280.745 26.3921 282.023 26.4934C287.471 26.4934 290.917 30.2652 290.917 36.016Z" fill="#606060"/>
<path d="M296.789 26.984C299.617 26.984 301.911 24.6907 301.911 21.8619C301.911 19.033 299.617 16.7397 296.789 16.7397C293.96 16.7397 291.666 19.033 291.666 21.8619C291.666 24.6907 293.96 26.984 296.789 26.984Z" fill="#606060"/>
</svg>
