<svg width="51" height="51" viewBox="0 0 51 51" fill="none" xmlns="http://www.w3.org/2000/svg">
<path fill-rule="evenodd" clip-rule="evenodd" d="M32.5875 14.9761C30.5506 13.6151 28.1558 12.8887 25.7061 12.8887V0.502441C30.6056 0.502441 35.3951 1.95532 39.4689 4.67736C43.5428 7.39938 46.7178 11.2683 48.5929 15.7949C50.4678 20.3214 50.9584 25.3024 50.0026 30.1078C49.0467 34.9132 46.6874 39.3272 43.2228 42.7917C39.7584 46.2562 35.3443 48.6156 30.5389 49.5714C25.7336 50.5272 20.7526 50.0366 16.226 48.1617C11.6995 46.2867 7.83054 43.1116 5.10851 39.0378C2.38648 34.9639 0.933594 30.1744 0.933594 25.2749H13.3198C13.3198 27.7247 14.0463 30.1194 15.4073 32.1563C16.7683 34.1933 18.7028 35.7808 20.9661 36.7183C23.2293 37.6558 25.7198 37.9011 28.1225 37.4231C30.5252 36.9452 32.7322 35.7656 34.4645 34.0334C36.1967 32.301 37.3764 30.094 37.8543 27.6914C38.3322 25.2887 38.087 22.7982 37.1495 20.535C36.212 18.2716 34.6244 16.3371 32.5875 14.9761Z" fill="#606060"/>
</svg>
