<svg width="130" height="50" viewBox="0 0 130 50" fill="none" xmlns="http://www.w3.org/2000/svg">
<path d="M31.4267 -0.00378418C26.3951 -0.00378418 21.5696 1.995 18.0118 5.55288L6.40041 17.1643C2.84254 20.7221 0.84375 25.5476 0.84375 30.5792C0.84375 41.057 9.33765 49.5509 19.8154 49.5509C24.847 49.5509 29.6725 47.552 33.2303 43.9941L41.262 35.9625C41.262 35.9623 41.2622 35.9626 41.262 35.9625L64.6635 12.561C66.3627 10.8617 68.6674 9.90714 71.0704 9.90714C75.0936 9.90714 78.5045 12.5293 79.687 16.1578L87.0725 8.77228C83.7032 3.49534 77.7955 -0.00378418 71.0704 -0.00378418C66.0388 -0.00378418 61.2134 1.995 57.6555 5.55288L26.2223 36.9861C24.5231 38.6853 22.2185 39.6399 19.8154 39.6399C14.8113 39.6399 10.7547 35.5834 10.7547 30.5792C10.7547 28.1761 11.7093 25.8715 13.4085 24.1723L25.0198 12.561C26.719 10.8617 29.0237 9.90714 31.4267 9.90714C35.4501 9.90714 38.8607 12.5294 40.0433 16.158L47.4289 8.77246C44.0597 3.49543 38.152 -0.00378418 31.4267 -0.00378418Z" fill="#606060"/>
<path d="M65.863 36.9861C64.1638 38.6853 61.8592 39.6399 59.4561 39.6399C55.4334 39.6399 52.0229 37.0185 50.84 33.3906L43.4547 40.7759C46.8241 46.0521 52.7315 49.5509 59.4561 49.5509C64.4877 49.5509 69.3132 47.552 72.871 43.9941L104.304 12.561C106.003 10.8617 108.308 9.90714 110.711 9.90714C115.715 9.90714 119.772 13.9638 119.772 18.9679C119.772 21.3709 118.817 23.6756 117.118 25.3748L105.507 36.9861C103.807 38.6853 101.503 39.6399 99.0998 39.6399C95.0768 39.6399 91.6661 37.018 90.4834 33.3898L83.0981 40.7752C86.4673 46.052 92.3749 49.5509 99.0998 49.5509C104.131 49.5509 108.957 47.552 112.515 43.9941L124.126 32.3828C127.684 28.825 129.683 23.9995 129.683 18.9679C129.683 8.49011 121.189 -0.00378418 110.711 -0.00378418C105.68 -0.00378418 100.854 1.995 97.2962 5.55288L65.863 36.9861Z" fill="#606060"/>
</svg>
