<svg width="269" height="72" viewBox="0 0 269 72" fill="none" xmlns="http://www.w3.org/2000/svg">
<path d="M78.4685 23.1132H85.0048V49.7967H78.4685V23.1132ZM87.6111 39.7596C87.6111 33.1503 91.6836 29.1888 97.7922 29.1888C103.901 29.1888 107.973 33.1503 107.973 39.7596C107.973 46.3689 104.043 50.3714 97.7922 50.3714C91.541 50.3714 87.6111 46.5126 87.6111 39.7596ZM101.498 39.7596C101.498 36.1266 100.093 33.9919 97.8533 33.9919C95.6135 33.9919 94.2288 36.0444 94.2288 39.7596C94.2288 43.4748 95.6135 45.5068 97.8533 45.5068C100.093 45.5068 101.539 43.4748 101.539 39.7801L101.498 39.7596ZM110.58 51.1719H116.892C117.179 51.8569 117.681 52.4285 118.321 52.799C118.961 53.1697 119.703 53.3191 120.435 53.2245C122.94 53.2245 124.243 51.8698 124.243 49.8583V46.1637H124.263C123.724 47.3141 122.851 48.2729 121.761 48.9141C120.671 49.5553 119.413 49.8486 118.154 49.7557C113.369 49.7557 110.193 46.0815 110.193 39.7596C110.193 33.4377 113.227 29.4967 118.338 29.4967C119.629 29.4271 120.91 29.7627 122.004 30.4575C123.098 31.1523 123.951 32.1721 124.446 33.3761H124.263V29.6609H130.738V49.653C130.738 54.4766 126.503 57.4939 120.272 57.4939C114.611 57.4734 110.987 54.8666 110.62 51.1925L110.58 51.1719ZM124.263 39.7596C124.263 36.5371 122.797 34.505 120.476 34.505C118.154 34.505 116.729 36.5576 116.729 39.7596C116.729 42.9616 118.134 44.85 120.476 44.85C122.817 44.85 124.263 43.1053 124.263 39.7596ZM133.324 39.7596C133.324 33.1503 137.397 29.1888 143.505 29.1888C149.614 29.1888 153.687 33.1503 153.687 39.7596C153.687 46.3689 149.736 50.3714 143.505 50.3714C137.275 50.3714 133.365 46.5126 133.365 39.7596H133.324ZM147.211 39.7596C147.211 36.1266 145.786 33.9919 143.567 33.9919C141.347 33.9919 139.942 36.0444 139.942 39.7596C139.942 43.4748 141.327 45.5068 143.567 45.5068C145.806 45.5068 147.252 43.4748 147.252 39.7801L147.211 39.7596ZM156.334 24.7963C156.305 24.1251 156.477 23.4607 156.826 22.8887C157.175 22.3164 157.686 21.8628 158.293 21.5859C158.901 21.3088 159.576 21.2214 160.233 21.3347C160.89 21.4477 161.498 21.7565 161.979 22.221C162.461 22.6857 162.793 23.2846 162.934 23.9412C163.075 24.5978 163.018 25.282 162.77 25.9053C162.522 26.5289 162.094 27.0634 161.542 27.44C160.99 27.8167 160.34 28.0183 159.673 28.0189C159.247 28.0297 158.823 27.9552 158.426 27.7999C158.029 27.6443 157.667 27.4107 157.36 27.1129C157.053 26.815 156.808 26.4587 156.639 26.0644C156.469 25.6703 156.38 25.2462 156.374 24.8168L156.334 24.7963ZM156.334 29.6404H162.951V49.8788H156.435L156.334 29.6404ZM186.755 39.7596C186.755 46.3484 183.823 50.1662 178.834 50.1662C177.557 50.2456 176.286 49.9279 175.194 49.2563C174.101 48.5845 173.24 47.591 172.725 46.41H172.603V56.3855H166.067V29.702H172.562V33.3145H172.685C173.181 32.1103 174.035 31.0895 175.128 30.3916C176.221 29.6938 177.501 29.3526 178.793 29.4146C183.924 29.3736 186.877 33.1708 186.877 39.7801L186.755 39.7596ZM180.096 39.7596C180.096 36.5576 178.61 34.4845 176.309 34.4845C174.008 34.4845 172.562 36.5371 172.542 39.7596C172.522 42.9822 174.008 45.0142 176.309 45.0142C178.61 45.0142 180.219 43.1053 180.219 39.7801L180.096 39.7596ZM197.913 29.1683C203.391 29.1683 206.791 31.7751 206.832 35.9623H200.866C200.866 34.505 199.664 33.6019 197.873 33.6019C196.081 33.6019 195.226 34.2998 195.226 35.3466C195.226 36.3934 195.979 36.7218 197.486 37.0297L201.68 37.8918C205.753 38.7538 207.382 40.3959 207.382 43.4542C207.382 47.5594 203.615 50.3509 198.015 50.3509C192.416 50.3509 188.771 47.6415 188.506 43.5158H194.839C195.022 45.0142 196.203 45.8968 198.117 45.8968C200.031 45.8968 200.927 45.281 200.927 44.1932C200.927 43.1053 200.316 42.9206 198.748 42.5922L194.961 41.7917C191.031 40.9501 188.974 38.877 188.974 35.7776C189.096 31.7546 192.517 29.1888 198.036 29.1888L197.913 29.1683ZM229.271 49.8583H222.939V46.061H222.816C222.462 47.3277 221.69 48.4346 220.627 49.1994C219.564 49.9644 218.276 50.3415 216.972 50.2688C215.989 50.301 215.007 50.1233 214.097 49.7468C213.187 49.3706 212.364 48.8043 211.686 48.0853C211.006 47.3661 210.487 46.5103 210.159 45.5744C209.831 44.6384 209.703 43.6429 209.785 42.6537V29.6609H216.321V41.2375C216.321 43.6185 217.563 44.9116 219.599 44.9116C220.078 44.9079 220.548 44.8009 220.982 44.5982C221.415 44.3952 221.8 44.1008 222.11 43.735C222.421 43.3693 222.651 42.9405 222.784 42.4778C222.914 42.015 222.947 41.5291 222.877 41.0527V29.6609H229.393L229.271 49.8583ZM232.427 29.6404H238.78V33.5403H238.923C239.273 32.2909 240.027 31.1942 241.061 30.4216C242.097 29.6492 243.358 29.2445 244.645 29.2709C245.938 29.1576 247.227 29.5345 248.257 30.3278C249.289 31.1211 249.99 32.2741 250.224 33.5608H250.509C250.916 32.2671 251.735 31.1452 252.84 30.3695C253.944 29.5936 255.274 29.2075 256.618 29.2709C257.512 29.2367 258.403 29.3931 259.232 29.7299C260.063 30.0665 260.812 30.5762 261.433 31.2254C262.054 31.8744 262.531 32.6485 262.834 33.4966C263.14 34.3447 263.262 35.2478 263.195 36.1471V49.8788H256.618V37.8302C256.618 35.7776 255.661 34.6282 253.808 34.6282C253.396 34.6214 252.989 34.7043 252.612 34.871C252.236 35.0379 251.902 35.2848 251.629 35.5947C251.356 35.9049 251.152 36.2704 251.032 36.667C250.914 37.0636 250.882 37.4812 250.937 37.8918V49.8788H244.706V37.7686C244.706 35.716 243.708 34.6282 241.916 34.6282C241.501 34.6249 241.089 34.7111 240.711 34.881C240.33 35.0512 239.992 35.301 239.715 35.614C239.44 35.927 239.234 36.2959 239.112 36.6957C238.988 37.0958 238.951 37.5176 239.004 37.9328V49.8788H232.468L232.427 29.6404Z" fill="#606060"/>
<path d="M65.54 24.8575C65.5402 20.7723 64.3165 16.7822 62.029 13.4099C59.7415 10.0377 56.4968 7.44045 52.7202 5.95849C48.9436 4.47651 44.8109 4.17888 40.8637 5.10458C36.9162 6.03027 33.3384 8.13613 30.5985 11.1463H5.18643V65.2112H58.8409V39.944C60.9467 38.0453 62.6319 35.7204 63.7862 33.1208C64.9406 30.5212 65.5382 27.7057 65.54 24.8575ZM55.2164 24.8575C55.2205 26.8151 54.6483 28.7299 53.5723 30.3597C52.4962 31.9892 50.965 33.2606 49.1719 34.0124C47.3788 34.7645 45.4049 34.9634 43.4996 34.5839C41.5945 34.2046 39.8437 33.2639 38.4691 31.881C37.0944 30.4982 36.1577 28.7355 35.7774 26.8157C35.397 24.8961 35.5903 22.9057 36.3325 21.0968C37.0747 19.2878 38.3326 17.7414 39.947 16.6534C41.5615 15.5654 43.4599 14.9847 45.4018 14.9846C48.0012 14.9846 50.4946 16.0242 52.3345 17.8751C54.1747 19.726 55.2111 22.2372 55.2164 24.8575ZM48.5172 54.8046H15.5101V21.5529H25.569C25.3747 22.6438 25.2725 23.7493 25.2635 24.8575C25.269 30.2398 27.3924 35.4 31.168 39.2059C34.9433 43.0116 40.0624 45.1522 45.4018 45.1575C46.4458 45.152 47.4875 45.0627 48.5172 44.8907V54.8046Z" fill="#606060"/>
</svg>
