<svg width="103" height="101" viewBox="0 0 103 101" fill="none" xmlns="http://www.w3.org/2000/svg">
<mask id="mask0_132_6073" style="mask-type:alpha" maskUnits="userSpaceOnUse" x="0" y="0" width="103" height="101">
<rect width="103" height="101" rx="25" fill="#323232"/>
</mask>
<g mask="url(#mask0_132_6073)">
<g filter="url(#filter0_f_132_6073)">
<ellipse cx="102" cy="97.5" rx="40" ry="39.5" fill="#20BCFF"/>
</g>
<g filter="url(#filter1_f_132_6073)">
<ellipse cx="1" cy="-1.5" rx="40" ry="39.5" fill="#24FFA3"/>
</g>
</g>
<path d="M16.2065 41.2573C16.796 34.2728 25.0638 27.5136 31.8576 28.4708C32.1905 28.5194 32.572 28.5887 32.8286 28.7829C36.1856 31.3111 39.5219 33.8635 42.865 36.4125C42.9829 36.5235 43.1043 36.6345 43.2222 36.742L43.1945 36.7177C43.3193 36.8426 43.4476 36.9709 43.5725 37.0957L43.5898 37.0541C42.8061 37.9211 41.6027 37.0194 40.7773 37.7234C40.4929 37.6853 40.212 37.6471 39.9276 37.6055C39.5912 37.4148 39.2999 37.4287 39.0884 37.7928L39.0051 37.8413C38.7693 37.8171 38.5578 37.8448 38.4294 38.0772C38.2873 38.1223 38.1485 38.1708 38.0063 38.2159C37.9162 38.2887 37.826 38.3615 37.7358 38.4378C37.6145 38.4899 37.4931 38.5419 37.3717 38.5974C37.063 38.5453 36.8099 38.6008 36.6954 38.9338C36.5498 39.0378 36.4041 39.1384 36.2585 39.2424C36.1614 39.3222 36.0643 39.3985 35.9706 39.4782C35.662 40.0643 35.1903 40.4527 34.5522 40.64C34.4482 40.7267 34.3476 40.8134 34.2436 40.9001C33.7893 41.8573 33.009 42.5578 32.3223 43.3347C32.024 43.3763 31.8472 43.5358 31.8298 43.8479C31.7189 44.0317 31.6044 44.219 31.4934 44.4028C31.157 44.5138 31.0703 44.7704 31.0842 45.0895C31.0357 45.2039 30.9836 45.3149 30.9351 45.4293C30.46 45.516 30.3767 45.8386 30.4461 46.2512C30.4634 46.3379 30.4357 46.4073 30.3663 46.4628C30.0889 46.6258 30.023 46.8824 30.0507 47.1772C30.0299 47.2951 30.0091 47.413 29.9918 47.5309C29.6589 47.7564 29.6623 48.0962 29.6831 48.4396C29.6276 48.6095 29.5756 48.776 29.5201 48.9459C29.4681 49.0603 29.4161 49.1782 29.3641 49.2927C29.3294 49.5008 29.2913 49.7054 29.2566 49.9135C29.1733 49.9031 29.0901 49.8927 29.0069 49.8892C24.9424 46.7021 20.375 44.2745 16.2065 41.2573Z" fill="white"/>
<path d="M16.205 41.2575C20.3736 44.2747 24.9409 46.7023 28.995 49.8859C28.4887 51.1968 28.3084 52.5008 28.9534 53.8325C29.0644 54.0614 28.9811 54.3839 28.9881 54.6648C25.5686 52.4279 22.2394 50.035 18.702 47.9958C15.8374 46.3485 15.5357 44.0597 16.205 41.2575Z" fill="url(#paint0_linear_132_6073)"/>
<path d="M40.7751 37.72C41.597 37.016 42.8004 37.9177 43.5877 37.0507C45.6199 37.9767 46.858 39.4471 46.8164 41.788C46.6464 41.8192 46.473 41.847 46.3031 41.8782C45.9979 41.6701 45.6893 41.462 45.3841 41.2505L45.2696 41.143C45.1829 41.0771 45.0997 41.0077 45.013 40.9383C44.2917 40.4424 43.5703 39.9465 42.8524 39.454C42.1623 38.8749 41.4687 38.2957 40.7786 37.72H40.7751Z" fill="url(#paint1_linear_132_6073)"/>
<path d="M28.9898 54.6678C28.9829 54.3869 29.0661 54.0643 28.9551 53.8354C28.3101 52.5037 28.4904 51.1998 28.9968 49.8889C29.08 49.8923 29.1632 49.8993 29.2499 49.9131L29.2742 50.0102V50.0623C28.8858 52.0876 29.5308 53.3811 31.5978 54.1649C32.5133 54.5117 34.3548 54.8065 33.5156 56.7347C31.6775 56.7694 30.1343 56.1555 28.9898 54.6678Z" fill="#377F84"/>
<path d="M85.5071 71.0716C85.2088 71.0647 84.9487 70.9884 84.7926 70.7075C85.1117 70.6659 85.3406 70.8046 85.5071 71.0716Z" fill="#C89268"/>
<path d="M62.7047 50.0037L62.6943 49.9725L62.7532 49.9413L62.7047 50.0037Z" fill="#D9A477"/>
<path d="M83.0035 67.9396C82.9723 67.8633 82.9307 67.787 82.9168 67.7073C82.9134 67.6795 82.9758 67.6414 83.007 67.6102C83.0451 67.7211 83.0451 67.8321 83.007 67.9396H83.0035Z" fill="#C59875"/>
<path d="M84.8137 70.7247C84.6923 70.6033 84.5674 70.482 84.4461 70.3571C84.5674 70.4785 84.6923 70.5999 84.8137 70.7247Z" fill="#C89268"/>
<path d="M43.22 36.7421C43.1021 36.6311 42.9807 36.5202 42.8628 36.4127C42.9807 36.5236 43.1021 36.6346 43.22 36.7421Z" fill="#377F84"/>
<path d="M62.4081 49.5316L62.4289 49.5351V49.438L62.4081 49.5316Z" fill="#D9A477"/>
<path d="M73.7196 59.6448C73.4318 57.7721 71.618 57.2589 70.4805 56.1907C69.721 55.4798 68.75 54.9977 68.0945 54.0856C66.957 52.5042 64.9386 52.1089 63.5237 50.8916C65.5733 50.8985 67.2206 52.0499 68.3477 53.4267C69.7418 55.1295 71.8122 55.83 73.2237 57.4635C74.0526 58.4206 74.8537 59.4506 75.8039 60.3176C75.2074 60.1893 74.6109 60.0645 74.0144 59.9361C73.9173 59.839 73.8202 59.7419 73.7231 59.6448H73.7196Z" fill="#159189"/>
<path d="M77.773 61.4104C77.6828 61.5109 77.5926 61.608 77.499 61.7086C76.9233 61.2404 76.3511 60.7722 75.7789 60.3075C76.6736 60.2624 77.3499 60.6023 77.773 61.4104Z" fill="url(#paint2_linear_132_6073)"/>
<path d="M40.7758 37.7202C41.466 38.2994 42.1596 38.8785 42.8497 39.4542C39.8083 40.1686 37.1726 41.5524 35.0987 43.9626C33.4653 45.8631 33.5797 45.9983 35.3831 47.6006C36.4929 48.5889 36.9714 47.2642 37.7309 47.3092C35.0432 54.0892 36.0628 60.3351 39.9574 66.2619C40.9319 67.7427 41.9966 69.1819 42.4231 70.9645C42.7734 72.4314 44.1849 72.6152 45.2738 73.1771C43.7895 73.7978 42.704 73.6036 41.5735 72.2026C39.3505 69.449 36.7079 67.0387 34.7519 64.0528C34.5022 63.6713 34.197 63.3904 34.2907 62.8424C34.7589 60.1686 34.4086 57.4635 34.5022 54.7758C34.4606 52.917 35.1334 51.2003 35.6501 49.4455C34.1485 50.6732 34.4259 52.5494 33.8156 54.0927C32.0295 53.1285 30.0944 52.3274 29.4563 50.1079C29.4147 50.0247 29.3522 49.9935 29.269 50.0073L29.2447 49.9102C29.2794 49.7022 29.3176 49.4976 29.3522 49.2895C29.4563 49.2791 29.5568 49.2721 29.6609 49.2617C30.2955 49.227 29.8724 48.7762 29.9487 48.523C29.9591 48.1936 29.9695 47.8607 29.9834 47.5312C30.0042 47.4133 30.025 47.2954 30.0424 47.1775C30.2851 47.0006 30.3753 46.7544 30.358 46.463C30.4273 46.411 30.4551 46.3382 30.4377 46.2515C30.7811 46.085 31.0099 45.8527 30.9302 45.4296C30.9787 45.3151 31.0307 45.2042 31.0793 45.0897C31.3533 44.9441 31.4538 44.6909 31.4885 44.4031C31.5995 44.2193 31.7139 44.032 31.8249 43.8482C31.9879 43.6782 32.1544 43.5048 32.3174 43.3349C33.0006 42.5581 33.7843 41.8575 34.2387 40.9004C34.3427 40.8137 34.4433 40.727 34.5473 40.6403C35.1819 40.453 35.6536 40.0646 35.9657 39.4785C36.0628 39.3987 36.1599 39.3224 36.257 39.2427C36.4027 39.1386 36.5483 39.0381 36.6905 38.934C36.9159 38.823 37.1414 38.7086 37.3668 38.5976C37.4882 38.5456 37.6095 38.4936 37.7309 38.4416C37.8211 38.3687 37.9113 38.2924 38.0014 38.2196C38.1436 38.1745 38.2823 38.126 38.4211 38.0809C38.6118 38.0011 38.806 37.9214 38.9967 37.8416L39.08 37.793C39.3574 37.7306 39.6383 37.6682 39.9192 37.6058C40.2036 37.6439 40.4845 37.6821 40.7689 37.7237L40.7758 37.7202Z" fill="url(#paint3_linear_132_6073)"/>
<path d="M78.5596 78.3481C78.518 79.8046 77.4291 79.822 76.465 79.7145C72.13 79.2359 67.8955 78.2544 63.7235 76.999C62.9571 76.7701 62.215 76.4649 61.452 76.2256C59.4683 75.6118 57.5331 74.9737 57.2002 72.4663C57.1413 72.0294 56.8083 71.6375 56.3644 71.419C56.2431 71.3046 56.1217 71.1901 55.9968 71.0757L56.0038 71.0895C55.976 70.6526 55.7471 70.4133 55.3032 70.389L55.3171 70.3925C55.1992 70.2746 55.0778 70.1532 54.9599 70.0353L54.9668 70.0491C55.161 69.4769 53.6316 68.5752 55.3032 68.2805C56.628 71.093 58.6186 72.8166 61.9514 72.4837C62.4924 72.4317 63.0611 72.6744 63.616 72.7785C63.7409 73.0177 63.8657 73.2536 63.9906 73.4929C65.409 75.154 67.2123 76.0072 69.3937 75.917C70.559 75.8684 71.3289 76.2083 72.1716 77.1412C73.4513 78.5561 75.2997 78.9307 77.2175 78.6151C77.6649 78.5423 78.1088 78.4382 78.5527 78.3481H78.5596Z" fill="url(#paint4_linear_132_6073)"/>
<path d="M55.0374 73.1632C55.3599 73.5586 55.9842 73.6453 56.1749 74.429C53.7508 74.8175 51.4446 74.2314 49.1314 73.8187C49.2354 73.4858 49.3429 73.1563 49.447 72.8234H49.4366C49.7556 72.8754 49.9845 72.754 50.1371 72.4731L50.1267 72.48C50.2481 72.48 50.3729 72.48 50.4943 72.48C51.774 72.4419 53.0537 72.4176 54.2987 72.7956C54.5241 72.9031 54.7461 73.0072 54.9715 73.1147L55.0339 73.1667L55.0374 73.1632Z" fill="white"/>
<path d="M73.0361 65.8971C72.9806 66.1156 72.9598 66.3688 72.6442 66.3618C72.6026 66.3618 72.5297 66.289 72.5297 66.2509C72.5193 65.9387 72.769 65.9075 72.9875 65.8486L73.0395 65.8971H73.0361Z" fill="#C89268"/>
<path d="M50.1382 72.4658C49.9856 72.7467 49.7567 72.8681 49.4377 72.8161C49.5972 72.5491 49.8504 72.4728 50.1382 72.4658Z" fill="#E2A170"/>
<path d="M65.0045 69.0224C64.8658 68.9669 64.7271 68.908 64.5884 68.8525C64.6196 68.8143 64.6716 68.7346 64.682 68.7415C64.8138 68.8039 64.9352 68.8837 65.0635 68.9531L65.0045 69.0224Z" fill="#C89268"/>
<path d="M72.6234 67.9887C72.3979 67.8638 72.1725 67.7425 71.9471 67.6176L71.9852 67.5795C72.2176 67.6939 72.45 67.8084 72.6823 67.9193L72.6268 67.9852L72.6234 67.9887Z" fill="#C89268"/>
<path d="M69.2756 66.0152C69.2617 66.0499 69.2513 66.1123 69.2374 66.1123C69.1958 66.1123 69.1577 66.088 69.116 66.0742C69.1299 66.0395 69.1403 65.9771 69.1542 65.9771C69.1958 65.9771 69.234 66.0013 69.2756 66.0152Z" fill="#C89268"/>
<path d="M52.5542 59.9813C52.4744 60.0541 52.3912 60.1304 52.3114 60.2032C52.2802 60.1478 52.2455 60.0888 52.2143 60.0333C52.3253 60.0125 52.4328 59.9917 52.5438 59.9709L52.5542 59.9813Z" fill="#CC8D5F"/>
<path d="M72.6711 62.7385L72.8133 62.8217C72.7578 62.8009 72.7058 62.7801 72.6503 62.7593L72.6711 62.7385Z" fill="#C89268"/>
<path d="M45.0107 40.9413C45.0974 41.0107 45.1841 41.0766 45.2674 41.146C45.1807 41.0766 45.094 41.0107 45.0107 40.9413Z" fill="#C59875"/>
<path d="M62.5653 51.6093C62.6 51.5711 62.6381 51.533 62.6728 51.4948C62.6971 51.5191 62.7248 51.5468 62.7491 51.5711C62.711 51.6058 62.6728 51.6439 62.6347 51.6786L62.5653 51.6093Z" fill="#CC8D5F"/>
<path d="M72.6506 62.7586C72.6055 62.7309 72.5604 62.7031 72.5153 62.6719C72.5673 62.6927 72.6194 62.7136 72.6714 62.7378L72.6506 62.7586Z" fill="#C89268"/>
<path d="M56.0014 71.075C56.1228 71.1894 56.2441 71.3038 56.369 71.4183C56.2441 71.4183 56.1193 71.4252 55.9944 71.4287C55.9944 71.3108 56.0014 71.1929 56.0048 71.075H56.0014Z" fill="#CC8D5F"/>
<path d="M50.4984 72.4727C50.3771 72.4727 50.2522 72.4727 50.1308 72.4727C50.2522 72.2854 50.3771 72.3131 50.4984 72.4727Z" fill="#E2A170"/>
<path d="M61.5598 65.8662C61.5841 65.8246 61.6049 65.7864 61.6292 65.7448C61.6084 65.7864 61.5876 65.8315 61.5668 65.8731L61.5598 65.8662Z" fill="#D9A477"/>
<path d="M70.2346 66.5633C70.1895 66.539 70.1444 66.5147 70.0994 66.4939C70.1444 66.5182 70.1861 66.5424 70.2311 66.5667L70.2346 66.5633Z" fill="#C89268"/>
<path d="M71.947 67.6171C71.836 67.4992 71.7216 67.3813 71.6106 67.2669L71.6279 67.2495C71.7458 67.3605 71.8638 67.4715 71.9817 67.5824L71.947 67.6206V67.6171Z" fill="#C89268"/>
<path d="M30.9307 45.4327C31.0139 45.8524 30.7816 46.0882 30.4383 46.2547C30.3724 45.842 30.4521 45.5194 30.9307 45.4327Z" fill="white"/>
<path d="M29.9545 48.5263C29.8782 48.7794 30.3047 49.2303 29.6666 49.265C29.6181 49.1575 29.566 49.0534 29.5175 48.9459C29.573 48.776 29.625 48.6095 29.6805 48.4396C29.7672 48.4812 29.8608 48.5089 29.9579 48.5228L29.9545 48.5263Z" fill="#C89268"/>
<path d="M39.9279 37.6055C39.647 37.6679 39.3696 37.7304 39.0887 37.7928C39.3002 37.4252 39.5915 37.4148 39.9279 37.6055Z" fill="white"/>
<path d="M29.9543 48.5262C29.8572 48.5089 29.767 48.4811 29.6768 48.443C29.6595 48.0962 29.656 47.7598 29.9855 47.5344C29.9751 47.8673 29.9612 48.1968 29.9508 48.5297L29.9543 48.5262Z" fill="white"/>
<path d="M31.4897 44.4061C31.4516 44.6939 31.3545 44.9471 31.0805 45.0927C31.0666 44.7737 31.1533 44.517 31.4897 44.4061Z" fill="white"/>
<path d="M32.3211 43.3381C32.1582 43.5081 31.9917 43.678 31.8287 43.8514C31.846 43.5393 32.0229 43.3832 32.3211 43.3381Z" fill="white"/>
<path d="M37.3711 38.5977C37.1457 38.7087 36.9203 38.8231 36.6949 38.9341C36.8093 38.6012 37.0625 38.5457 37.3711 38.5977Z" fill="white"/>
<path d="M39.0055 37.8413C38.8113 37.9211 38.6205 38.0009 38.4298 38.0806C38.5581 37.8483 38.7731 37.8205 39.0055 37.8413Z" fill="white"/>
<path d="M30.3589 46.4624C30.3763 46.7537 30.2861 46.9999 30.0434 47.1768C30.0156 46.8786 30.078 46.6219 30.3589 46.4624Z" fill="white"/>
<path d="M34.5513 40.6436C34.4473 40.7303 34.3432 40.817 34.2426 40.9037C34.3467 40.817 34.4507 40.7303 34.5513 40.6436Z" fill="#377F84"/>
<path d="M36.2568 39.2462C36.1597 39.326 36.0626 39.4057 35.9655 39.482C36.0626 39.4023 36.1597 39.3225 36.2568 39.2462Z" fill="#377F84"/>
<path d="M38.0051 38.2191C37.915 38.2919 37.8213 38.3682 37.7346 38.441C37.8248 38.3682 37.915 38.2919 38.0051 38.2191Z" fill="#377F84"/>
<path d="M29.5118 48.9464C29.5603 49.0539 29.6124 49.1579 29.6609 49.2654C29.5569 49.2758 29.4563 49.2862 29.3523 49.2932C29.4043 49.1787 29.4563 49.0643 29.5083 48.9464H29.5118Z" fill="#46929C"/>
<path d="M58.1815 46.4517C59.5965 47.4782 61.0114 48.5048 62.4263 49.5348H62.4055C62.5026 49.6804 62.5963 49.8261 62.6934 49.9717L62.7003 50.003C62.9743 50.3012 63.2483 50.596 63.5188 50.8908C64.9337 52.1115 66.9521 52.5034 68.0896 54.0848C68.745 54.9969 69.7161 55.4789 70.4756 56.1899C71.6131 57.258 73.4303 57.7713 73.7147 59.644C73.8118 59.7411 73.9089 59.8382 74.006 59.9353C74.6025 60.0636 75.199 60.1885 75.7955 60.3168L75.7747 60.3064C76.3469 60.7746 76.9226 61.2427 77.4948 61.7075C79.0624 62.8242 77.3353 63.2056 76.8116 63.9617C78.0046 64.2183 78.9514 63.2507 79.9571 63.7917L79.9363 63.7744C80.1478 64.2287 80.5328 64.4194 81.001 64.4853L80.9802 64.4645C81.0252 65.1269 81.4657 65.5188 81.9408 65.8933C81.9026 66.5384 82.3812 67.6481 81.6668 67.7244C80.2484 67.8701 80.3039 69.233 79.3849 69.8746C81.2784 68.7787 82.8563 69.7324 84.469 70.3809L84.4447 70.3636C84.5661 70.485 84.6909 70.6064 84.8123 70.7312L84.795 70.7139C84.951 70.9948 85.2111 71.0745 85.5094 71.078L85.492 71.0607C85.4539 71.6086 85.7452 72.0317 85.9671 72.4999C86.2966 73.1935 86.4388 74.0015 85.8596 74.5946C85.1556 75.3159 84.6146 74.4974 84.0701 74.1888C82.5408 73.3322 81.0356 72.4271 79.4057 71.4699C79.4126 72.3889 80.2172 72.3612 80.3559 72.8987C79.0381 73.7484 78.1087 75.4199 76.1354 74.8859C74.4291 73.6547 72.5113 72.7392 70.9091 71.345C70.5796 71.0607 70.0802 70.7971 69.671 70.8144C68.2491 70.8734 67.0839 70.4711 66.1787 69.344C65.9152 69.0145 65.4886 68.9521 65.0724 68.9556C64.9476 68.8828 64.8227 68.8065 64.691 68.744C64.6805 68.7406 64.6285 68.8169 64.5973 68.855C64.736 68.9105 64.8748 68.9695 65.0135 69.0249C65.9256 70.2214 66.9486 71.1855 68.5335 71.5011C69.4629 71.6884 70.3299 72.2155 71.2073 72.6247C72.3414 73.1519 73.0939 73.8281 71.8628 75.2673C73.3471 74.0223 74.7551 74.6778 76.1388 74.8893C77.0336 75.9852 78.9375 76.3702 78.5699 78.3504C78.126 78.4406 77.6821 78.5411 77.2347 78.6174C75.3169 78.933 73.465 78.5619 72.1888 77.1435C71.346 76.2106 70.5762 75.8708 69.4109 75.9193C67.2261 76.0095 65.4262 75.1564 64.0078 73.4952C64.6216 72.76 65.232 72.0282 65.929 71.1924C64.6043 71.0988 64.1118 71.9311 63.6297 72.7808C63.0749 72.6733 62.5061 72.4305 61.9651 72.486C58.6324 72.8155 56.6383 71.0919 55.3169 68.2828C55.6013 67.7036 55.3412 67.4193 54.8384 67.7383C53.85 68.366 53.0177 68.1371 52.1229 67.5892C51.5334 67.232 50.9022 66.7742 50.2571 66.7083C47.5972 66.4413 46.862 64.4853 46.2689 62.3907C45.7453 60.5387 45.5129 58.777 46.8377 57.0083C47.7949 55.7286 48.5682 54.2062 48.3081 52.1739C47.9787 52.8745 47.729 53.3218 47.5486 53.7969C46.7718 55.8396 44.8054 57.4141 45.2112 59.9353C45.3256 60.6393 44.6424 60.6462 44.1084 60.6983C43.2622 60.7815 42.4715 60.9896 41.9409 61.8392C43.1443 62.2207 44.802 60.7121 45.3222 62.5606C45.8181 64.3189 48.6168 66.358 44.8783 68.0331C46.4319 68.0227 47.5937 67.225 49.0468 67.4539C51.2975 67.8111 53.1321 68.8932 54.9805 70.0515L54.9736 70.0376C55.0915 70.1555 55.2129 70.2769 55.3308 70.3948H55.3169C55.3551 70.8214 55.5736 71.0711 56.0175 71.0919L56.0105 71.078C56.0105 71.1959 56.0036 71.3138 56.0001 71.4317C56.2048 72.004 56.4059 72.5762 56.6417 73.2386C56.0418 73.2108 55.5424 73.19 55.043 73.1692L54.9805 73.1172C54.8765 72.7565 54.769 72.4062 54.3078 72.7981C53.0627 72.4201 51.7831 72.4444 50.5034 72.4825C50.3785 72.323 50.2571 72.2953 50.1357 72.4825L50.1462 72.4756C49.8583 72.4825 49.6017 72.5588 49.4456 72.8259H49.456C48.4503 72.434 47.566 72.9785 46.64 73.19C46.1892 73.19 45.7349 73.19 45.284 73.19C44.1951 72.6282 42.7836 72.4409 42.4333 70.9774C42.0068 69.1914 40.9421 67.7557 39.9676 66.2748C36.073 60.3515 35.0534 54.1021 37.7411 47.3222C36.9816 47.2736 36.5065 48.5984 35.3933 47.6135C33.5899 46.0113 33.4755 45.876 35.1089 43.9756C37.1828 41.5653 39.8184 40.1816 42.8599 39.4672C43.5812 39.9631 44.3026 40.459 45.0204 40.9515C45.1071 41.0208 45.1904 41.0867 45.2771 41.1561L45.3915 41.2636C45.3256 41.6381 45.2355 42.0543 45.6031 42.2936C46.0088 42.5572 46.1302 42.1271 46.3105 41.8913C46.4805 41.8601 46.6504 41.8289 46.8238 41.8011C46.8966 41.8531 46.9556 41.919 47.0007 41.9953C47.3614 43.1016 48.3809 42.6196 49.0745 42.7652C51.9114 43.3513 54.4014 44.8148 57.0891 45.7685L57.0683 45.7581C57.2209 46.046 57.481 46.1223 57.7792 46.1223L57.7619 46.1119C57.9075 46.2332 58.0532 46.3511 58.1989 46.4725L58.1815 46.4517ZM72.6674 62.7375C72.6153 62.7166 72.5633 62.6958 72.5113 62.6716C72.5564 62.6993 72.6015 62.727 72.6465 62.7583C72.702 62.7791 72.7541 62.7999 72.8095 62.8207C72.761 62.7929 72.7159 62.7652 72.6674 62.7375ZM71.9807 67.5823C71.8628 67.4713 71.7449 67.3603 71.627 67.2493C71.3252 66.684 70.8224 66.5349 70.2294 66.5661C70.1843 66.5419 70.1427 66.5176 70.0976 66.4933C70.1427 66.5176 70.1877 66.5419 70.2328 66.5627C70.5137 67.1453 71.0235 67.2805 71.6096 67.2667C71.7206 67.3846 71.835 67.5025 71.946 67.6169C72.1714 67.7418 72.3969 67.8632 72.6223 67.988C73.0072 69.7983 74.6233 69.3128 75.7851 69.6769C76.5203 70.6306 77.5919 70.9219 78.6878 71.1716C77.904 70.3012 76.9469 69.781 75.7747 69.6908C74.7447 69.1012 73.7112 68.5117 72.6812 67.9221C72.4489 67.8077 72.2165 67.6932 71.9842 67.5823H71.9807ZM61.5593 65.8656C60.5814 66.1604 59.9502 67.343 58.7087 66.9788C59.8982 67.2181 61.2403 67.8354 61.5663 65.8725C61.5871 65.8309 61.6079 65.7858 61.6287 65.7442C61.6044 65.7858 61.5836 65.824 61.5593 65.8656ZM73.0315 65.8968C75.8094 64.2877 77.7931 66.7118 80.1686 67.3013C78.4381 65.1234 75.4001 65.224 73.3506 63.1883C75.0776 64.5824 72.9205 64.9813 72.9829 65.8483C72.7645 65.9072 72.5148 65.9384 72.5252 66.2505C72.5252 66.2922 72.6015 66.3615 72.6396 66.3615C72.9552 66.3685 72.976 66.1153 73.0315 65.8968ZM52.5495 59.9804C53.798 59.5781 55.0499 59.1793 56.2949 58.7701C59.7699 57.6291 61.5802 54.9934 62.631 51.6815C62.6691 51.6468 62.7073 51.6086 62.7454 51.574C62.7211 51.5497 62.6934 51.5219 62.6691 51.4977C62.6344 51.5358 62.5963 51.574 62.5616 51.6121C61.7015 51.7474 61.3859 52.4444 61.0287 53.0999C59.7317 55.4789 58.0428 57.3482 55.3065 58.1736C54.2904 58.4788 53.0697 58.7805 52.5391 59.9735C52.4281 59.9943 52.3206 60.0151 52.2096 60.0359C52.2408 60.0914 52.2755 60.1503 52.3067 60.2058C52.3865 60.133 52.4697 60.0567 52.5495 59.9839V59.9804ZM67.6908 57.5459L67.2642 57.5632C67.1359 58.399 66.8099 59.2452 67.6908 60.4V57.5459ZM72.2373 61.9398C72.6674 61.1179 73.2604 60.8405 73.1459 60.0602C72.3969 60.3341 71.9529 60.6705 72.2373 61.9398ZM71.4085 61.8219C71.1068 61.6971 70.8675 61.6 70.6282 61.5028C70.6108 61.593 70.5484 61.7283 70.5866 61.7664C70.7842 61.978 71.0201 62.1063 71.4085 61.8219ZM69.2722 66.0147C69.2306 66.0008 69.1924 65.9766 69.1508 65.9766C69.1369 65.9766 69.1231 66.039 69.1127 66.0737C69.1543 66.0875 69.1924 66.1118 69.234 66.1118C69.2479 66.1118 69.2618 66.0494 69.2722 66.0147Z" fill="url(#paint5_linear_132_6073)"/>
<path d="M49.4462 72.8189C49.3422 73.1518 49.2347 73.4813 49.1306 73.8142C48.2879 73.6443 47.2198 74.3518 46.6302 73.1831C47.5562 72.9715 48.4405 72.427 49.4462 72.8189Z" fill="url(#paint6_linear_132_6073)"/>
<path d="M81.1588 73.8141C82.8408 73.7829 85.4244 75.777 85.7955 77.4104C86.0868 78.7005 85.3065 79.1895 84.2245 79.3733C82.7784 79.6195 80.0733 78.2739 79.3312 76.9769C78.374 75.3019 79.2133 73.8453 81.1588 73.8106V73.8141Z" fill="url(#paint7_linear_132_6073)"/>
<path d="M76.1294 74.8827C78.1027 75.4168 79.0321 73.7452 80.35 72.8955C80.2112 72.358 79.4067 72.3857 79.3997 71.4667C81.0332 72.4239 82.5348 73.329 84.0642 74.1856C84.6087 74.4908 85.1497 75.3127 85.8537 74.5914C86.4328 73.9949 86.2941 73.1903 85.9612 72.4967C85.7392 72.0285 85.4445 71.602 85.4861 71.0575C87.0814 71.928 87.3969 73.3845 86.8629 74.8966C86.5473 75.7878 86.4779 76.478 86.8143 77.3346C87.2513 78.4478 87.4316 79.7136 86.4432 80.5633C85.4999 81.3713 84.2619 81.2638 83.1729 80.6743C81.6123 79.8246 80.187 79.2108 78.3871 80.3899C77.1941 81.1736 75.6716 80.4246 74.3295 80.213C69.3529 79.4362 64.4769 78.2085 59.8367 76.2491C57.4993 75.2607 55.0578 75.663 52.6822 75.2434C49.8454 74.744 46.9739 74.4145 44.0781 74.4423C42.9649 74.4527 42.0979 74.0192 41.3731 73.1556C40.5963 72.2297 39.8056 71.2794 38.8761 70.5165C34.4822 66.9202 32.7933 62.3077 33.5146 56.7381C34.3504 54.8099 32.5089 54.5151 31.5968 54.1683C29.5299 53.3846 28.8883 52.091 29.2698 50.0657C29.3253 50.1142 29.3912 50.1281 29.4605 50.1142C30.0986 52.3337 32.0338 53.1349 33.8198 54.099C33.8614 54.5117 34.0903 54.7405 34.5065 54.7822C34.4128 57.4699 34.7631 60.1749 34.2949 62.8487C34.1978 63.3967 34.5065 63.6776 34.7561 64.0591C36.7121 67.0485 39.3547 69.4553 41.5777 72.2089C42.7048 73.6099 43.7938 73.8041 45.2781 73.1834C45.7289 73.1834 46.1832 73.1834 46.6341 73.1834C47.2236 74.3521 48.2918 73.6446 49.1345 73.8145C51.4511 74.2272 53.7573 74.8168 56.178 74.4249C55.9838 73.6411 55.363 73.5544 55.0405 73.1591C55.5399 73.1799 56.0358 73.2042 56.6392 73.2285C56.4034 72.5661 56.1988 71.9938 55.9977 71.4216C56.1225 71.4216 56.2474 71.4147 56.3722 71.4112C56.8161 71.6297 57.149 72.0181 57.208 72.4586C57.5374 74.9659 59.4761 75.604 61.4598 76.2179C62.2227 76.4537 62.9649 76.7589 63.7313 76.9912C67.9033 78.2467 72.1377 79.2281 76.4727 79.7067C77.4368 79.8142 78.5258 79.7969 78.5674 78.3403C78.935 76.3566 77.0311 75.9716 76.1363 74.8792L76.1294 74.8827ZM81.158 73.8145C79.2125 73.8492 78.3697 75.3023 79.3304 76.9808C80.0691 78.2744 82.7776 79.6235 84.2237 79.3772C85.3057 79.1934 86.086 78.7044 85.7947 77.4143C85.4236 75.7809 82.84 73.7868 81.158 73.818V73.8145Z" fill="url(#paint8_linear_132_6073)"/>
<path d="M84.4692 70.3741C82.8566 69.729 81.2821 68.7719 79.3851 69.8678C80.3041 69.2297 80.2486 67.8667 81.6671 67.7176C82.3815 67.6448 81.9029 66.5316 81.941 65.8865C82.1006 65.8692 82.2601 65.8553 82.4231 65.838C82.8462 66.3512 83.0577 66.9338 83.0057 67.6066C82.9745 67.6413 82.9121 67.6795 82.9155 67.7037C82.9294 67.7835 82.971 67.8598 83.0022 67.9361C82.4682 69.3649 84.0843 69.4967 84.4692 70.3706V70.3741Z" fill="url(#paint9_linear_132_6073)"/>
<path d="M57.0765 45.7552C54.3888 44.8015 51.8988 43.338 49.062 42.7519C48.3684 42.6097 47.3523 43.0918 46.9881 41.982C50.744 42.1866 54.1183 43.4108 57.0731 45.7552H57.0765Z" fill="url(#paint10_linear_132_6073)"/>
<path d="M79.9574 63.7885C78.9517 63.251 78.005 64.2151 76.812 63.9585C77.3356 63.2024 79.0627 62.8209 77.4952 61.7043C77.5853 61.6037 77.6755 61.5066 77.7691 61.406C78.7645 61.954 79.3401 62.8868 79.9574 63.7851V63.7885Z" fill="url(#paint11_linear_132_6073)"/>
<path d="M82.4257 65.842C82.2662 65.8593 82.1066 65.8732 81.9436 65.8905C81.4685 65.5195 81.0246 65.1241 80.983 64.4617C81.8049 64.5658 82.1899 65.1241 82.4257 65.842Z" fill="url(#paint12_linear_132_6073)"/>
<path d="M81.0019 64.4822C80.5337 64.4163 80.1453 64.2256 79.9372 63.7713C80.4539 63.7643 80.8181 63.9863 81.0019 64.4822Z" fill="url(#paint13_linear_132_6073)"/>
<path d="M55.3046 68.2802C53.633 68.575 55.1659 69.4732 54.9682 70.0489C53.1197 68.8906 51.2886 67.8085 49.0344 67.4513C47.5813 67.2225 46.4196 68.0201 44.8659 68.0305C48.6044 66.3555 45.8057 64.3163 45.3098 62.558C44.7861 60.7095 43.1319 62.2181 41.9285 61.8366C42.4591 60.987 43.2498 60.7789 44.096 60.6957C44.6266 60.6437 45.3098 60.6367 45.1988 59.9327C44.7931 57.4115 46.7594 55.837 47.5362 53.7944C47.7166 53.3192 47.9663 52.8719 48.2957 52.1713C48.5558 54.2036 47.7859 55.726 46.8253 57.0057C45.504 58.7709 45.7329 60.5361 46.2566 62.3881C46.8496 64.4827 47.5848 66.4422 50.2448 66.7057C50.8933 66.7716 51.5245 67.2294 52.1105 67.5866C53.0053 68.1311 53.8376 68.36 54.826 67.7357C55.3254 67.4167 55.5889 67.701 55.3046 68.2802Z" fill="url(#paint14_linear_132_6073)"/>
<path d="M52.5434 59.9705C53.0741 58.7775 54.2948 58.4792 55.3109 58.1706C58.0472 57.3452 59.7361 55.476 61.0331 53.0969C61.3903 52.4414 61.7024 51.7444 62.566 51.6091L62.6353 51.682C61.588 54.9939 59.7742 57.6296 56.2993 58.7706C55.0508 59.1798 53.8023 59.5786 52.5539 59.9809L52.5434 59.9705Z" fill="url(#paint15_linear_132_6073)"/>
<path d="M72.9849 65.8457C72.9225 64.9787 75.0796 64.5799 73.3525 63.1857C75.4021 65.2249 78.4436 65.1209 80.1706 67.2988C77.7951 66.7092 75.8114 64.2851 73.0335 65.8942L72.9815 65.8457H72.9849Z" fill="url(#paint16_linear_132_6073)"/>
<path d="M63.9944 73.4957C63.8695 73.2564 63.7447 73.0206 63.6198 72.7813C64.1019 71.9316 64.5944 71.0993 65.9191 71.193C65.2221 72.0287 64.6082 72.7605 63.9979 73.4957H63.9944Z" fill="url(#paint17_linear_132_6073)"/>
<path d="M75.7856 69.6773C74.6273 69.3132 73.0112 69.7987 72.6228 67.9884L72.6783 67.9225C73.7083 68.512 74.7418 69.1016 75.7717 69.6912L75.7822 69.6773H75.7856Z" fill="url(#paint18_linear_132_6073)"/>
<path d="M67.6959 57.5463V60.4004C66.8185 59.2491 67.1445 58.4029 67.2693 57.5636L67.6959 57.5463Z" fill="url(#paint19_linear_132_6073)"/>
<path d="M75.7763 69.6914C76.9519 69.7816 77.9091 70.3018 78.6894 71.1723C77.5935 70.926 76.5219 70.6347 75.7867 69.6776L75.7763 69.6914Z" fill="url(#paint20_linear_132_6073)"/>
<path d="M72.2421 61.9401C71.9577 60.6709 72.4016 60.331 73.1507 60.0605C73.2651 60.8408 72.6721 61.1182 72.2421 61.9401Z" fill="url(#paint21_linear_132_6073)"/>
<path d="M45.3839 41.2536C45.6891 41.4617 45.9977 41.6698 46.3029 41.8813C46.1226 42.1171 46.0012 42.5472 45.5955 42.2836C45.2278 42.0443 45.318 41.6281 45.3839 41.2536Z" fill="url(#paint22_linear_132_6073)"/>
<path d="M70.235 66.5627C70.8281 66.5315 71.3309 66.6807 71.6327 67.2494L71.6153 67.2668C71.0292 67.2806 70.5194 67.1454 70.2385 66.5627H70.235Z" fill="url(#paint23_linear_132_6073)"/>
<path d="M55.308 70.3848C55.7519 70.409 55.9808 70.6483 56.0085 71.0853C55.5612 71.0645 55.3462 70.8148 55.308 70.3848Z" fill="url(#paint24_linear_132_6073)"/>
<path d="M54.9733 73.1073C54.7479 72.9997 54.5259 72.8957 54.3005 72.7882C54.7618 72.3963 54.8693 72.7466 54.9733 73.1073Z" fill="url(#paint25_linear_132_6073)"/>
<path d="M33.8202 54.0992C34.4306 52.556 34.1496 50.6798 35.6548 49.4521C35.138 51.2069 34.4652 52.9236 34.5068 54.7824C34.0907 54.7443 33.8653 54.5154 33.8202 54.0992Z" fill="url(#paint26_linear_132_6073)"/>
<path d="M65.0625 68.949C65.4787 68.949 65.9053 69.008 66.1688 69.3374C67.074 70.468 68.2392 70.8668 69.6611 70.8079C70.0703 70.7905 70.5732 71.0541 70.8992 71.3385C72.5014 72.7326 74.4192 73.6482 76.1255 74.8793C74.7417 74.6678 73.3337 74.0123 71.8494 75.2573C73.084 73.8216 72.328 73.1418 71.194 72.6147C70.3166 72.2055 69.4496 71.6783 68.5201 71.4911C66.9353 71.172 65.9122 70.2114 65.0001 69.0149L65.0591 68.9456L65.0625 68.949Z" fill="url(#paint27_linear_132_6073)"/>
<path d="M61.5669 65.8731C61.241 67.836 59.9023 67.2187 58.7093 66.9794C59.9509 67.3435 60.5786 66.1609 61.56 65.8661L61.5669 65.8731Z" fill="url(#paint28_linear_132_6073)"/>
<path d="M71.4092 61.8223C71.0173 62.1067 70.785 61.9783 70.5873 61.7668C70.5492 61.7287 70.6151 61.5934 70.6289 61.5032C70.8682 61.6003 71.1075 61.6974 71.4092 61.8223Z" fill="url(#paint29_linear_132_6073)"/>
<path d="M29.2731 50.0107C29.3564 49.9969 29.4188 50.0315 29.4604 50.1113C29.3876 50.1252 29.3251 50.1113 29.2697 50.0628L29.2731 50.0107Z" fill="#46929C"/>
<path fill-rule="evenodd" clip-rule="evenodd" d="M67.5398 41.6315C68.0885 40.4401 69.4991 39.9191 70.6905 40.4677L84.4243 46.7923C85.6157 47.341 86.1368 48.7516 85.5881 49.9429L83.8959 53.6176C83.9633 54.061 83.9062 54.5283 83.7046 54.9661L80.9817 60.8789C80.433 62.0703 79.0224 62.5914 77.831 62.0427L73.4402 60.0206C72.2487 59.472 71.7278 58.0614 72.2764 56.87L73.9279 53.2838L66.3877 49.8114C65.1963 49.2627 64.6752 47.8521 65.2238 46.6607L67.5398 41.6315Z" fill="url(#paint30_linear_132_6073)"/>
<path d="M77.8309 62.0429L73.4401 60.0208C72.2487 59.4722 71.7277 58.0616 72.2763 56.8702L74.9993 50.9574C75.5479 49.766 76.9585 49.245 78.1499 49.7936L82.5407 51.8157C83.7321 52.3643 84.2532 53.775 83.7045 54.9664L80.9816 60.8791C80.4329 62.0705 79.0223 62.5916 77.8309 62.0429Z" fill="url(#paint31_linear_132_6073)" fill-opacity="0.35"/>
<path d="M78.1489 49.7939L82.5397 51.816C83.7311 52.3646 84.2522 53.7752 83.7035 54.9666L80.9806 60.8794C80.4319 62.0708 79.0213 62.5918 77.8299 62.0432L73.4391 60.0212C72.2477 59.4725 71.7267 58.0619 72.2753 56.8705L74.9982 50.9577C75.5469 49.7663 76.9575 49.2453 78.1489 49.7939Z" fill="url(#paint32_linear_132_6073)" fill-opacity="0.35"/>
<path d="M65.2241 46.6613L67.5402 41.6321C68.0888 40.4407 69.4994 39.9196 70.6908 40.4683L84.4246 46.7929C85.616 47.3415 86.1371 48.7521 85.5884 49.9435L83.2724 54.9728C82.7237 56.1642 81.3131 56.6852 80.1217 56.1366L66.3879 49.812C65.1965 49.2633 64.6755 47.8527 65.2241 46.6613Z" fill="url(#paint33_linear_132_6073)" fill-opacity="0.7"/>
<path fill-rule="evenodd" clip-rule="evenodd" d="M67.5386 41.6315C68.0872 40.4401 69.4978 39.9191 70.6892 40.4677L79.8305 44.6774C80.0194 44.7127 80.2071 44.7716 80.3896 44.8557L84.8077 46.8903C85.9991 47.4389 86.5202 48.8495 85.9715 50.041L82.8035 56.9203C82.2548 58.1117 80.8443 58.6328 79.6528 58.0841L75.2347 56.0495C74.0433 55.5008 73.5223 54.0902 74.0709 52.8988L75.7169 49.3246L68.2039 45.8648C67.0125 45.3161 66.4914 43.9055 67.0401 42.7141L67.5386 41.6315Z" fill="url(#paint34_linear_132_6073)"/>
<mask id="mask1_132_6073" style="mask-type:alpha" maskUnits="userSpaceOnUse" x="73" y="44" width="14" height="14">
<path d="M79.6772 57.768L75.3267 55.7645C74.1353 55.2158 73.6142 53.8052 74.1629 52.6138L77.3416 45.7115C77.8902 44.5201 79.3008 43.9991 80.4922 44.5477L84.8428 46.5513C86.0342 47.0999 86.5552 48.5105 86.0066 49.7019L82.8279 56.6042C82.2792 57.7956 80.8686 58.3167 79.6772 57.768Z" fill="#D9D9D9"/>
</mask>
<g mask="url(#mask1_132_6073)">
<path d="M81.2498 59.0758L73.3109 55.4198C73.1104 55.3275 73.0227 55.0901 73.1151 54.8896C73.2074 54.689 73.4448 54.6013 73.6453 54.6937L81.5842 58.3497C81.7847 58.442 81.8724 58.6794 81.7801 58.88C81.6877 59.0805 81.4503 59.1682 81.2498 59.0758Z" fill="white"/>
</g>
<mask id="mask2_132_6073" style="mask-type:alpha" maskUnits="userSpaceOnUse" x="67" y="36" width="14" height="13">
<path d="M74.3777 48.3516L68.8867 45.8229C67.6953 45.2742 67.1742 43.8636 67.7229 42.6722L70.0546 37.6089C70.6033 36.4175 72.0139 35.8965 73.2053 36.4451L78.6963 38.9738C79.8877 39.5225 80.4088 40.9331 79.8601 42.1245L77.5284 47.1879C76.9797 48.3793 75.5691 48.9003 74.3777 48.3516Z" fill="#D9D9D9"/>
</mask>
<g mask="url(#mask2_132_6073)">
<path d="M76.4245 49.294L66.842 44.881C66.7804 44.8527 66.7535 44.7798 66.7818 44.7182L66.7818 44.7182C66.8102 44.6567 66.8831 44.6298 66.9446 44.6581L76.5272 49.0711C76.5887 49.0994 76.6157 49.1723 76.5873 49.2339C76.559 49.2954 76.4861 49.3223 76.4245 49.294Z" fill="white"/>
</g>
<path fill-rule="evenodd" clip-rule="evenodd" d="M50.5861 35.3803C49.5773 34.542 49.439 33.0446 50.2774 32.0358L59.941 20.4069C60.7794 19.3981 62.2767 19.2599 63.2855 20.0982L66.397 22.6838C66.8427 22.7334 67.2793 22.9096 67.6501 23.2176L72.6566 27.3781C73.6654 28.2164 73.8036 29.7138 72.9653 30.7226L69.8757 34.4405C69.0374 35.4493 67.5401 35.5875 66.5312 34.7492L63.4947 32.2258L58.1891 38.6103C57.3507 39.6191 55.8533 39.7574 54.8445 38.9191L50.5861 35.3803Z" fill="url(#paint35_linear_132_6073)"/>
<path d="M72.9671 30.7222L69.8775 34.44C69.0392 35.4488 67.5418 35.587 66.533 34.7487L61.5264 30.5882C60.5176 29.7499 60.3794 28.2525 61.2178 27.2437L64.3073 23.5258C65.1456 22.517 66.643 22.3788 67.6518 23.2172L72.6584 27.3777C73.6672 28.216 73.8054 29.7134 72.9671 30.7222Z" fill="url(#paint36_linear_132_6073)" fill-opacity="0.35"/>
<path d="M61.217 27.2442L64.3065 23.5263C65.1448 22.5175 66.6422 22.3793 67.651 23.2176L72.6576 27.3781C73.6664 28.2164 73.8046 29.7138 72.9663 30.7226L69.8767 34.4405C69.0384 35.4493 67.541 35.5875 66.5322 34.7491L61.5257 30.5887C60.5168 29.7504 60.3786 28.253 61.217 27.2442Z" fill="url(#paint37_linear_132_6073)" fill-opacity="0.35"/>
<path d="M54.8446 38.9192L50.5862 35.3804C49.5774 34.5421 49.4392 33.0447 50.2775 32.0359L59.9412 20.407C60.7795 19.3982 62.2769 19.26 63.2857 20.0983L67.5441 23.637C68.5529 24.4754 68.6911 25.9728 67.8528 26.9816L58.1891 38.6105C57.3508 39.6193 55.8534 39.7575 54.8446 38.9192Z" fill="url(#paint38_linear_132_6073)" fill-opacity="0.7"/>
<path fill-rule="evenodd" clip-rule="evenodd" d="M50.5864 35.3807C49.5776 34.5424 49.4394 33.045 50.2777 32.0362L56.7099 24.2959C56.7929 24.1226 56.8984 23.9566 57.0268 23.802L60.1356 20.061C60.9739 19.0522 62.4713 18.914 63.4801 19.7523L69.3051 24.5929C70.3139 25.4313 70.4522 26.9286 69.6138 27.9374L66.5051 31.6785C65.6667 32.6872 64.1693 32.8254 63.1605 31.9871L60.1341 29.4722L54.8476 35.8337C54.0093 36.8425 52.5119 36.9808 51.5031 36.1424L50.5864 35.3807Z" fill="url(#paint39_linear_132_6073)"/>
<mask id="mask3_132_6073" style="mask-type:alpha" maskUnits="userSpaceOnUse" x="56" y="19" width="14" height="14">
<path d="M69.3154 27.8317L66.2541 31.5154C65.4158 32.5242 63.9184 32.6624 62.9096 31.8241L57.0652 26.9673C56.0564 26.129 55.9182 24.6316 56.7565 23.6228L59.8178 19.939C60.6561 18.9302 62.1535 18.792 63.1623 19.6304L69.0067 24.4872C70.0155 25.3255 70.1537 26.8229 69.3154 27.8317Z" fill="#D9D9D9"/>
</mask>
<g mask="url(#mask3_132_6073)">
<path d="M70.9846 26.652L65.3985 33.3742C65.2574 33.5439 65.0054 33.5672 64.8356 33.4261C64.6658 33.285 64.6425 33.033 64.7836 32.8632L70.3698 26.1411C70.5109 25.9713 70.7629 25.948 70.9327 26.0891C71.1025 26.2302 71.1257 26.4823 70.9846 26.652Z" fill="white"/>
</g>
<mask id="mask4_132_6073" style="mask-type:alpha" maskUnits="userSpaceOnUse" x="46" y="23" width="14" height="14">
<path d="M58.8478 30.5133L54.9841 35.1628C54.1458 36.1716 52.6484 36.3098 51.6396 35.4715L47.3523 31.9087C46.3434 31.0703 46.2053 29.5729 47.0436 28.5641L50.9073 23.9147C51.7457 22.9059 53.243 22.7677 54.2518 23.606L58.5392 27.1688C59.548 28.0071 59.6862 29.5045 58.8478 30.5133Z" fill="#D9D9D9"/>
</mask>
<g mask="url(#mask4_132_6073)">
<path d="M60.2857 28.7806L53.543 36.8944C53.4997 36.9466 53.4223 36.9537 53.3702 36.9104L53.3702 36.9104C53.318 36.8671 53.3109 36.7897 53.3542 36.7376L60.0969 28.6237C60.1402 28.5716 60.2176 28.5644 60.2697 28.6078C60.3219 28.6511 60.329 28.7284 60.2857 28.7806Z" fill="white"/>
</g>
<defs>
<filter id="filter0_f_132_6073" x="-18" y="-22" width="240" height="239" filterUnits="userSpaceOnUse" color-interpolation-filters="sRGB">
<feFlood flood-opacity="0" result="BackgroundImageFix"/>
<feBlend mode="normal" in="SourceGraphic" in2="BackgroundImageFix" result="shape"/>
<feGaussianBlur stdDeviation="40" result="effect1_foregroundBlur_132_6073"/>
</filter>
<filter id="filter1_f_132_6073" x="-119" y="-121" width="240" height="239" filterUnits="userSpaceOnUse" color-interpolation-filters="sRGB">
<feFlood flood-opacity="0" result="BackgroundImageFix"/>
<feBlend mode="normal" in="SourceGraphic" in2="BackgroundImageFix" result="shape"/>
<feGaussianBlur stdDeviation="40" result="effect1_foregroundBlur_132_6073"/>
</filter>
<linearGradient id="paint0_linear_132_6073" x1="21.6048" y1="31.5438" x2="23.986" y2="56.7443" gradientUnits="userSpaceOnUse">
<stop stop-color="#24FFA3"/>
<stop offset="1" stop-color="#1580AD"/>
</linearGradient>
<linearGradient id="paint1_linear_132_6073" x1="43.4025" y1="33.5532" x2="44.0744" y2="42.6584" gradientUnits="userSpaceOnUse">
<stop stop-color="#24FFA3"/>
<stop offset="1" stop-color="#1580AD"/>
</linearGradient>
<linearGradient id="paint2_linear_132_6073" x1="76.8382" y1="62.6666" x2="77.1826" y2="58.8659" gradientUnits="userSpaceOnUse">
<stop stop-color="#24FFA3"/>
<stop offset="1" stop-color="#20BCFF"/>
</linearGradient>
<linearGradient id="paint3_linear_132_6073" x1="37.7598" y1="97.9956" x2="63.8121" y2="7.57282" gradientUnits="userSpaceOnUse">
<stop stop-color="#24FFA3"/>
<stop offset="1" stop-color="#20BCFF"/>
</linearGradient>
<linearGradient id="paint4_linear_132_6073" x1="67.2871" y1="87.5764" x2="69.2" y2="56.4033" gradientUnits="userSpaceOnUse">
<stop stop-color="#24FFA3"/>
<stop offset="1" stop-color="#20BCFF"/>
</linearGradient>
<linearGradient id="paint5_linear_132_6073" x1="64.4588" y1="17.4899" x2="59.7672" y2="108.857" gradientUnits="userSpaceOnUse">
<stop stop-color="#24FFA3"/>
<stop offset="1" stop-color="#20BCFF"/>
</linearGradient>
<linearGradient id="paint6_linear_132_6073" x1="48.2726" y1="72.0128" x2="48.192" y2="74.7945" gradientUnits="userSpaceOnUse">
<stop stop-color="#24FFA3"/>
<stop offset="1" stop-color="#20BCFF"/>
</linearGradient>
<linearGradient id="paint7_linear_132_6073" x1="81.2801" y1="61.6726" x2="81.4745" y2="87.6838" gradientUnits="userSpaceOnUse">
<stop stop-color="#24FFA3"/>
<stop offset="1" stop-color="#20BCFF"/>
</linearGradient>
<linearGradient id="paint8_linear_132_6073" x1="58.3909" y1="38.8205" x2="59.5489" y2="102.463" gradientUnits="userSpaceOnUse">
<stop stop-color="#15A066"/>
<stop offset="1" stop-color="#1580AD"/>
</linearGradient>
<linearGradient id="paint9_linear_132_6073" x1="81.9469" y1="64.1966" x2="82.2282" y2="73.4806" gradientUnits="userSpaceOnUse">
<stop stop-color="#15A066"/>
<stop offset="1" stop-color="#1580AD"/>
</linearGradient>
<linearGradient id="paint10_linear_132_6073" x1="52.0715" y1="40.6167" x2="52.1697" y2="48.345" gradientUnits="userSpaceOnUse">
<stop stop-color="#15A066"/>
<stop offset="1" stop-color="#1580AD"/>
</linearGradient>
<linearGradient id="paint11_linear_132_6073" x1="78.3969" y1="60.4664" x2="78.5459" y2="65.7819" gradientUnits="userSpaceOnUse">
<stop stop-color="#15A066"/>
<stop offset="1" stop-color="#1580AD"/>
</linearGradient>
<linearGradient id="paint12_linear_132_6073" x1="81.7099" y1="63.9447" x2="81.8083" y2="66.8684" gradientUnits="userSpaceOnUse">
<stop stop-color="#15A066"/>
<stop offset="1" stop-color="#1580AD"/>
</linearGradient>
<linearGradient id="paint13_linear_132_6073" x1="80.4737" y1="63.5138" x2="80.5067" y2="64.9698" gradientUnits="userSpaceOnUse">
<stop stop-color="#15A066"/>
<stop offset="1" stop-color="#1580AD"/>
</linearGradient>
<linearGradient id="paint14_linear_132_6073" x1="48.7274" y1="45.7024" x2="50.3718" y2="82.2517" gradientUnits="userSpaceOnUse">
<stop stop-color="#15A066"/>
<stop offset="1" stop-color="#1580AD"/>
</linearGradient>
<linearGradient id="paint15_linear_132_6073" x1="57.6286" y1="48.5798" x2="58.1113" y2="65.7163" gradientUnits="userSpaceOnUse">
<stop stop-color="#15A066"/>
<stop offset="1" stop-color="#1580AD"/>
</linearGradient>
<linearGradient id="paint16_linear_132_6073" x1="76.604" y1="61.6974" x2="76.7676" y2="70.1201" gradientUnits="userSpaceOnUse">
<stop stop-color="#15A066"/>
<stop offset="1" stop-color="#1580AD"/>
</linearGradient>
<linearGradient id="paint17_linear_132_6073" x1="64.7784" y1="70.3499" x2="64.9397" y2="75.0765" gradientUnits="userSpaceOnUse">
<stop stop-color="#15A066"/>
<stop offset="1" stop-color="#1580AD"/>
</linearGradient>
<linearGradient id="paint18_linear_132_6073" x1="74.2165" y1="67.2825" x2="74.2853" y2="70.9044" gradientUnits="userSpaceOnUse">
<stop stop-color="#15A066"/>
<stop offset="1" stop-color="#1580AD"/>
</linearGradient>
<linearGradient id="paint19_linear_132_6073" x1="67.4031" y1="56.5135" x2="68.3382" y2="62.2068" gradientUnits="userSpaceOnUse">
<stop stop-color="#15A066"/>
<stop offset="1" stop-color="#1580AD"/>
</linearGradient>
<linearGradient id="paint20_linear_132_6073" x1="77.2441" y1="69.1367" x2="77.2975" y2="72.1978" gradientUnits="userSpaceOnUse">
<stop stop-color="#15A066"/>
<stop offset="1" stop-color="#1580AD"/>
</linearGradient>
<linearGradient id="paint21_linear_132_6073" x1="72.6641" y1="59.3803" x2="72.9066" y2="63.2156" gradientUnits="userSpaceOnUse">
<stop stop-color="#15A066"/>
<stop offset="1" stop-color="#1580AD"/>
</linearGradient>
<linearGradient id="paint22_linear_132_6073" x1="45.8171" y1="40.851" x2="45.905" y2="43.127" gradientUnits="userSpaceOnUse">
<stop stop-color="#15A066"/>
<stop offset="1" stop-color="#1580AD"/>
</linearGradient>
<linearGradient id="paint23_linear_132_6073" x1="70.9393" y1="66.3023" x2="70.9643" y2="67.754" gradientUnits="userSpaceOnUse">
<stop stop-color="#15A066"/>
<stop offset="1" stop-color="#1580AD"/>
</linearGradient>
<linearGradient id="paint24_linear_132_6073" x1="55.661" y1="70.1313" x2="55.7097" y2="71.5647" gradientUnits="userSpaceOnUse">
<stop stop-color="#15A066"/>
<stop offset="1" stop-color="#1580AD"/>
</linearGradient>
<linearGradient id="paint25_linear_132_6073" x1="54.6395" y1="72.4381" x2="54.6645" y2="73.4441" gradientUnits="userSpaceOnUse">
<stop stop-color="#15A066"/>
<stop offset="1" stop-color="#1580AD"/>
</linearGradient>
<linearGradient id="paint26_linear_132_6073" x1="34.7446" y1="47.5233" x2="35.8116" y2="58.3375" gradientUnits="userSpaceOnUse">
<stop stop-color="#15A066"/>
<stop offset="1" stop-color="#1580AD"/>
</linearGradient>
<linearGradient id="paint27_linear_132_6073" x1="70.606" y1="66.6617" x2="70.855" y2="79.5869" gradientUnits="userSpaceOnUse">
<stop stop-color="#15A066"/>
<stop offset="1" stop-color="#1580AD"/>
</linearGradient>
<linearGradient id="paint28_linear_132_6073" x1="60.1492" y1="65.3608" x2="60.1967" y2="68.2211" gradientUnits="userSpaceOnUse">
<stop stop-color="#15A066"/>
<stop offset="1" stop-color="#1580AD"/>
</linearGradient>
<linearGradient id="paint29_linear_132_6073" x1="70.9956" y1="61.3283" x2="71.0151" y2="62.3183" gradientUnits="userSpaceOnUse">
<stop stop-color="#15A066"/>
<stop offset="1" stop-color="#1580AD"/>
</linearGradient>
<linearGradient id="paint30_linear_132_6073" x1="62.1333" y1="27.3657" x2="95.7565" y2="85.3625" gradientUnits="userSpaceOnUse">
<stop stop-color="#1580AD"/>
<stop offset="1" stop-color="#15A066"/>
</linearGradient>
<linearGradient id="paint31_linear_132_6073" x1="81.3437" y1="60.3881" x2="79.5975" y2="59.6197" gradientUnits="userSpaceOnUse">
<stop stop-color="#24FFA3"/>
<stop offset="1" stop-color="#24FFA3" stop-opacity="0"/>
</linearGradient>
<linearGradient id="paint32_linear_132_6073" x1="74.636" y1="51.4486" x2="76.593" y2="52.2855" gradientUnits="userSpaceOnUse">
<stop stop-color="#24FFA3"/>
<stop offset="1" stop-color="#24FFA3" stop-opacity="0"/>
</linearGradient>
<linearGradient id="paint33_linear_132_6073" x1="65.767" y1="44.8813" x2="67.6531" y2="45.7893" gradientUnits="userSpaceOnUse">
<stop stop-color="#20BCFF"/>
<stop offset="1" stop-color="#BBBBBB" stop-opacity="0"/>
</linearGradient>
<linearGradient id="paint34_linear_132_6073" x1="62.7892" y1="23.7736" x2="92.4287" y2="67.2202" gradientUnits="userSpaceOnUse">
<stop stop-color="#24FFA3"/>
<stop offset="1" stop-color="#20BCFF"/>
</linearGradient>
<linearGradient id="paint35_linear_132_6073" x1="35.4071" y1="36.9104" x2="100.13" y2="19.4436" gradientUnits="userSpaceOnUse">
<stop stop-color="#1580AD"/>
<stop offset="1" stop-color="#15A066"/>
</linearGradient>
<linearGradient id="paint36_linear_132_6073" x1="72.2778" y1="26.9007" x2="71.0837" y2="28.3886" gradientUnits="userSpaceOnUse">
<stop stop-color="#24FFA3"/>
<stop offset="1" stop-color="#24FFA3" stop-opacity="0"/>
</linearGradient>
<linearGradient id="paint37_linear_132_6073" x1="61.9061" y1="31.0656" x2="63.2209" y2="29.3919" gradientUnits="userSpaceOnUse">
<stop stop-color="#24FFA3"/>
<stop offset="1" stop-color="#24FFA3" stop-opacity="0"/>
</linearGradient>
<linearGradient id="paint38_linear_132_6073" x1="53.2658" y1="37.934" x2="54.631" y2="36.3473" gradientUnits="userSpaceOnUse">
<stop stop-color="#20BCFF"/>
<stop offset="1" stop-color="#BBBBBB" stop-opacity="0"/>
</linearGradient>
<linearGradient id="paint39_linear_132_6073" x1="32.1078" y1="35.3463" x2="81.7453" y2="17.9615" gradientUnits="userSpaceOnUse">
<stop stop-color="#24FFA3"/>
<stop offset="1" stop-color="#20BCFF"/>
</linearGradient>
</defs>
</svg>
