<svg width="103" height="101" viewBox="0 0 103 101" fill="none" xmlns="http://www.w3.org/2000/svg">
<mask id="mask0_132_6068" style="mask-type:alpha" maskUnits="userSpaceOnUse" x="0" y="0" width="103" height="101">
<rect width="103" height="101" rx="25" fill="#323232"/>
</mask>
<g mask="url(#mask0_132_6068)">
<g filter="url(#filter0_f_132_6068)">
<ellipse cx="102" cy="97.5" rx="40" ry="39.5" fill="#20BCFF"/>
</g>
<g filter="url(#filter1_f_132_6068)">
<ellipse cx="1" cy="-1.5" rx="40" ry="39.5" fill="#24FFA3"/>
</g>
</g>
<path fill-rule="evenodd" clip-rule="evenodd" d="M36.2192 23.7629C36.2192 22.7893 37.0084 22 37.982 22H40.9201C40.9695 22 41.0184 22.002 41.0667 22.006C41.7075 21.9535 42.3729 22.2453 42.7402 22.8814L52.6636 40.0692C53.3421 41.2444 52.494 42.7135 51.1369 42.7135H46.7959V67.8341C46.7959 68.8077 46.0066 69.597 45.0331 69.597H37.3941C36.4204 69.597 35.6312 68.8077 35.6312 67.8341V42.7135H31.2902C29.9331 42.7135 29.085 41.2444 29.7635 40.0692L36.2192 28.8877V23.7629Z" fill="url(#paint0_linear_132_6068)"/>
<path fill-rule="evenodd" clip-rule="evenodd" d="M36.2192 23.7629C36.2192 22.7893 37.0084 22 37.982 22H40.9201C40.9695 22 41.0184 22.002 41.0667 22.006C41.7075 21.9535 42.3729 22.2453 42.7402 22.8814L52.6636 40.0692C53.3421 41.2444 52.494 42.7135 51.1369 42.7135H46.7959V67.8341C46.7959 68.8077 46.0066 69.597 45.0331 69.597H37.3941C36.4204 69.597 35.6312 68.8077 35.6312 67.8341V42.7135H31.2902C29.9331 42.7135 29.085 41.2444 29.7635 40.0692L36.2192 28.8877V23.7629Z" fill="url(#paint1_linear_132_6068)" fill-opacity="0.7"/>
<path fill-rule="evenodd" clip-rule="evenodd" d="M36.2192 23.7629C36.2192 22.7893 37.0084 22 37.982 22H40.9201C40.9695 22 41.0184 22.002 41.0667 22.006C41.7075 21.9535 42.3729 22.2453 42.7402 22.8814L52.6636 40.0692C53.3421 41.2444 52.494 42.7135 51.1369 42.7135H46.7959V67.8341C46.7959 68.8077 46.0066 69.597 45.0331 69.597H37.3941C36.4204 69.597 35.6312 68.8077 35.6312 67.8341V42.7135H31.2902C29.9331 42.7135 29.085 41.2444 29.7635 40.0692L36.2192 28.8877V23.7629Z" fill="url(#paint2_linear_132_6068)" fill-opacity="0.7"/>
<path fill-rule="evenodd" clip-rule="evenodd" d="M39.2155 22.8814C38.537 21.7062 36.8407 21.7062 36.1622 22.8814L26.2388 40.0692C25.5603 41.2444 26.4084 42.7135 27.7655 42.7135H32.1065V67.8341C32.1065 68.8077 32.8957 69.597 33.8694 69.597H41.5084C42.4819 69.597 43.2712 68.8077 43.2712 67.8341V42.7135H47.6122C48.9693 42.7135 49.8174 41.2444 49.1389 40.0692L39.2155 22.8814Z" fill="url(#paint3_linear_132_6068)"/>
<path fill-rule="evenodd" clip-rule="evenodd" d="M60.5444 76.0607C60.5444 77.0343 61.3336 77.8235 62.3072 77.8235H65.2453C65.2947 77.8235 65.3436 77.8215 65.3919 77.8175C66.0327 77.87 66.6982 77.5782 67.0654 76.9421L76.9888 59.7543C77.6673 58.5791 76.8191 57.11 75.4621 57.11H71.1211V31.9894C71.1211 31.0158 70.3319 30.2266 69.3582 30.2266H61.7192C60.7457 30.2266 59.9564 31.0158 59.9564 31.9894V57.11H55.6154C54.2584 57.11 53.4102 58.5791 54.0887 59.7543L60.5444 70.9358V76.0607Z" fill="url(#paint4_linear_132_6068)"/>
<path fill-rule="evenodd" clip-rule="evenodd" d="M60.5444 76.0607C60.5444 77.0343 61.3336 77.8235 62.3072 77.8235H65.2453C65.2947 77.8235 65.3436 77.8215 65.3919 77.8175C66.0327 77.87 66.6982 77.5782 67.0654 76.9421L76.9888 59.7543C77.6673 58.5791 76.8191 57.11 75.4621 57.11H71.1211V31.9894C71.1211 31.0158 70.3319 30.2266 69.3582 30.2266H61.7192C60.7457 30.2266 59.9564 31.0158 59.9564 31.9894V57.11H55.6154C54.2584 57.11 53.4102 58.5791 54.0887 59.7543L60.5444 70.9358V76.0607Z" fill="url(#paint5_linear_132_6068)" fill-opacity="0.7"/>
<path fill-rule="evenodd" clip-rule="evenodd" d="M60.5444 76.0607C60.5444 77.0343 61.3336 77.8235 62.3072 77.8235H65.2453C65.2947 77.8235 65.3436 77.8215 65.3919 77.8175C66.0327 77.87 66.6982 77.5782 67.0654 76.9421L76.9888 59.7543C77.6673 58.5791 76.8191 57.11 75.4621 57.11H71.1211V31.9894C71.1211 31.0158 70.3319 30.2266 69.3582 30.2266H61.7192C60.7457 30.2266 59.9564 31.0158 59.9564 31.9894V57.11H55.6154C54.2584 57.11 53.4102 58.5791 54.0887 59.7543L60.5444 70.9358V76.0607Z" fill="url(#paint6_linear_132_6068)" fill-opacity="0.7"/>
<path fill-rule="evenodd" clip-rule="evenodd" d="M63.5365 76.9421C62.8579 78.1173 61.1617 78.1173 60.4831 76.9421L50.5598 59.7543C49.8812 58.5791 50.7294 57.11 52.0864 57.11H56.4274V31.9894C56.4274 31.0158 57.2167 30.2266 58.1903 30.2266H65.8293C66.8029 30.2266 67.5921 31.0158 67.5921 31.9894V57.11H71.9331C73.2902 57.11 74.1384 58.5791 73.4598 59.7543L63.5365 76.9421Z" fill="url(#paint7_linear_132_6068)"/>
<path d="M45.0707 65.929C49.354 70.2123 50.1592 76.3516 46.8692 79.6416C39.8632 87.3529 37.4398 82.1264 33.1565 77.8431C28.8732 73.5598 23.647 71.1367 31.358 64.1305C34.8017 61.0016 40.7874 61.6457 45.0707 65.929Z" fill="url(#paint8_linear_132_6068)"/>
<ellipse cx="36.939" cy="74.0607" rx="8.5" ry="11" transform="rotate(-45 36.939 74.0607)" fill="url(#paint9_linear_132_6068)"/>
<ellipse cx="36.9389" cy="74.0607" rx="7.5" ry="10" transform="rotate(-45 36.9389 74.0607)" fill="white"/>
<path d="M59.5265 33.8205C54.2805 30.7918 51.9138 25.07 54.2402 21.0406C59.0116 11.7788 62.7051 16.2 67.9511 19.2287C73.197 22.2575 78.8723 23.2454 73.2374 32.0087C70.7209 35.9222 64.7724 36.8493 59.5265 33.8205Z" fill="url(#paint10_linear_132_6068)"/>
<ellipse cx="65.2765" cy="23.8612" rx="8.5" ry="11" transform="rotate(120 65.2765 23.8612)" fill="url(#paint11_linear_132_6068)"/>
<ellipse cx="65.2765" cy="23.8612" rx="7.5" ry="10" transform="rotate(120 65.2765 23.8612)" fill="white"/>
<path d="M34.0613 73.8734C34.0264 73.5151 33.7705 73.1934 33.399 73.0246L32.6452 72.6822L32.7546 73.8048L33.5249 74.1547C33.8964 74.3235 34.0957 74.2257 34.0613 73.8734ZM33.799 72.0934C33.7664 71.759 33.5402 71.4736 33.1796 71.3098L32.4804 70.9922L32.5823 72.0372L33.2815 72.3549C33.6421 72.5187 33.8322 72.4338 33.799 72.0934ZM34.8469 74.3273C34.9115 74.9901 34.4926 75.245 33.7005 74.8851L32.0562 74.1382L31.6498 69.97L33.2231 70.6847C34.0207 71.047 34.5074 71.7018 34.5679 72.3229C34.6174 72.8305 34.3697 73.0204 34.011 72.983C34.4507 73.2627 34.7992 73.8376 34.8469 74.3273ZM34.9306 71.4603L35.6954 71.8078L35.947 74.3875C36.0028 74.9608 36.316 75.3884 36.8022 75.6093C37.2939 75.8326 37.5488 75.6631 37.4929 75.0898L37.2414 72.5101L38.0116 72.86L38.2626 75.4338C38.3697 76.5325 37.701 76.7424 36.8652 76.3627C36.0294 75.9831 35.2887 75.1329 35.1816 74.0341L34.9306 71.4603ZM38.2152 72.9524L39.0783 73.3445L40.0835 75.6217L40.7117 74.0865L41.5639 74.4737L40.5396 76.6051L40.6811 78.0562L39.9163 77.7088L39.7748 76.2577L38.2152 72.9524Z" fill="#606060"/>
<path d="M62.381 25.0986C61.511 25.0986 60.611 24.7036 60.203 24.0178L61.103 24.0178C61.295 24.3087 61.628 24.501 62.018 24.501C62.414 24.501 62.543 24.3191 62.393 24.0593C61.94 23.2747 60.053 23.7476 59.3 22.4329C58.922 21.7782 59.306 21.3833 60.17 21.3833C61.028 21.3833 61.835 21.7626 62.267 22.4173L61.343 22.4173C61.187 22.1783 60.857 21.9913 60.494 21.9861C60.158 21.9757 59.993 22.116 60.164 22.4121C60.584 23.1396 62.498 22.7343 63.236 24.0126C63.566 24.5841 63.335 25.0985 62.381 25.0986ZM65.0053 22.0224L63.4153 22.0224L63.9403 22.9318L65.3503 22.9318L65.6833 23.5085L64.2733 23.5085L64.8283 24.4698L66.4183 24.4698L66.7603 25.0622L64.3303 25.0622L62.2332 21.4301L64.6632 21.4301L65.0053 22.0224ZM66.0296 21.4353L67.7906 24.4854L69.1706 24.4854L69.5036 25.0622L67.2836 25.0622L65.1896 21.4353L66.0296 21.4353ZM68.5435 21.4353L70.3045 24.4854L71.6845 24.4854L72.0175 25.0622L69.7975 25.0622L67.7035 21.4353L68.5435 21.4353Z" fill="#606060"/>
<defs>
<filter id="filter0_f_132_6068" x="-18" y="-22" width="240" height="239" filterUnits="userSpaceOnUse" color-interpolation-filters="sRGB">
<feFlood flood-opacity="0" result="BackgroundImageFix"/>
<feBlend mode="normal" in="SourceGraphic" in2="BackgroundImageFix" result="shape"/>
<feGaussianBlur stdDeviation="40" result="effect1_foregroundBlur_132_6068"/>
</filter>
<filter id="filter1_f_132_6068" x="-119" y="-121" width="240" height="239" filterUnits="userSpaceOnUse" color-interpolation-filters="sRGB">
<feFlood flood-opacity="0" result="BackgroundImageFix"/>
<feBlend mode="normal" in="SourceGraphic" in2="BackgroundImageFix" result="shape"/>
<feGaussianBlur stdDeviation="40" result="effect1_foregroundBlur_132_6068"/>
</filter>
<linearGradient id="paint0_linear_132_6068" x1="67.3629" y1="8.77862" x2="4.48786" y2="85.4626" gradientUnits="userSpaceOnUse">
<stop stop-color="#15A066"/>
<stop offset="1" stop-color="#1580AD"/>
</linearGradient>
<linearGradient id="paint1_linear_132_6068" x1="38.5696" y1="20.8248" x2="41.5077" y2="27.8762" gradientUnits="userSpaceOnUse">
<stop stop-color="#24FFA3"/>
<stop offset="1" stop-color="#24FFA3" stop-opacity="0"/>
</linearGradient>
<linearGradient id="paint2_linear_132_6068" x1="44.7396" y1="69.597" x2="44.7396" y2="62.2517" gradientUnits="userSpaceOnUse">
<stop stop-color="#20BCFF"/>
<stop offset="1" stop-color="#20BCFF" stop-opacity="0"/>
</linearGradient>
<linearGradient id="paint3_linear_132_6068" x1="63.8382" y1="8.77862" x2="0.96317" y2="85.4626" gradientUnits="userSpaceOnUse">
<stop stop-color="#24FFA3"/>
<stop offset="1" stop-color="#20BCFF"/>
</linearGradient>
<linearGradient id="paint4_linear_132_6068" x1="91.688" y1="91.0449" x2="28.8131" y2="14.3609" gradientUnits="userSpaceOnUse">
<stop stop-color="#15A066"/>
<stop offset="1" stop-color="#1580AD"/>
</linearGradient>
<linearGradient id="paint5_linear_132_6068" x1="62.8949" y1="78.9988" x2="65.8329" y2="71.9474" gradientUnits="userSpaceOnUse">
<stop stop-color="#24FFA3"/>
<stop offset="1" stop-color="#24FFA3" stop-opacity="0"/>
</linearGradient>
<linearGradient id="paint6_linear_132_6068" x1="69.0648" y1="30.2266" x2="69.0648" y2="37.5718" gradientUnits="userSpaceOnUse">
<stop stop-color="#20BCFF"/>
<stop offset="1" stop-color="#20BCFF" stop-opacity="0"/>
</linearGradient>
<linearGradient id="paint7_linear_132_6068" x1="88.159" y1="91.0449" x2="25.2841" y2="14.3609" gradientUnits="userSpaceOnUse">
<stop stop-color="#24FFA3"/>
<stop offset="1" stop-color="#20BCFF"/>
</linearGradient>
<linearGradient id="paint8_linear_132_6068" x1="26.3723" y1="42.3245" x2="50.4536" y2="125.115" gradientUnits="userSpaceOnUse">
<stop stop-color="#15A066"/>
<stop offset="1" stop-color="#1580AD"/>
</linearGradient>
<linearGradient id="paint9_linear_132_6068" x1="49.439" y1="53.0607" x2="18.439" y2="100.561" gradientUnits="userSpaceOnUse">
<stop stop-color="#24FFA3"/>
<stop offset="1" stop-color="#20BCFF"/>
</linearGradient>
<linearGradient id="paint10_linear_132_6068" x1="83.697" y1="51.7812" x2="39.0086" y2="-21.9553" gradientUnits="userSpaceOnUse">
<stop stop-color="#15A066"/>
<stop offset="1" stop-color="#1580AD"/>
</linearGradient>
<linearGradient id="paint11_linear_132_6068" x1="77.7765" y1="2.86122" x2="46.7765" y2="50.3612" gradientUnits="userSpaceOnUse">
<stop stop-color="#24FFA3"/>
<stop offset="1" stop-color="#20BCFF"/>
</linearGradient>
</defs>
</svg>
