<svg width="103" height="101" viewBox="0 0 103 101" fill="none" xmlns="http://www.w3.org/2000/svg">
<mask id="mask0_132_6071" style="mask-type:alpha" maskUnits="userSpaceOnUse" x="0" y="0" width="103" height="101">
<rect width="103" height="101" rx="25" fill="#323232"/>
</mask>
<g mask="url(#mask0_132_6071)">
<g filter="url(#filter0_f_132_6071)">
<ellipse cx="102" cy="97.5" rx="40" ry="39.5" fill="#20BCFF"/>
</g>
<g filter="url(#filter1_f_132_6071)">
<ellipse cx="1" cy="-1.5" rx="40" ry="39.5" fill="#24FFA3"/>
</g>
</g>
<path d="M54.1277 41.3211C69.9622 51.5088 77.7775 66.3933 73.3847 74.3996C68.1855 82.4806 51.1342 80.7728 35.2997 70.5852C19.4653 60.3975 11.1 45.6172 16.2992 37.5361C21.4984 29.4551 38.2933 31.1335 54.1277 41.3211Z" fill="url(#paint0_linear_132_6071)"/>
<path d="M51.983 44.9751C67.8174 55.1627 82.2081 63.5595 70.5792 79.0802C64.3713 87.3657 47.6682 86.4804 31.8337 76.2927C15.9992 66.1051 8.5522 51.5554 13.2375 42.1876C22.7944 23.2715 38.7587 36.467 51.983 44.9751Z" fill="url(#paint1_linear_132_6071)"/>
<path d="M51.9893 44.9806C67.8238 55.1682 82.2145 63.5651 70.5856 79.0858C64.3776 87.3712 47.6745 86.4859 31.8401 76.2983C16.0056 66.1106 8.55855 51.561 13.2439 42.1931C22.8008 23.2771 38.5066 36.5326 51.9893 44.9806Z" fill="url(#paint2_linear_132_6071)" fill-opacity="0.6"/>
<path d="M51.9857 44.978C67.8202 55.1656 82.2108 63.5625 70.5819 79.0831C64.374 87.3686 47.6709 86.4832 31.8364 76.2956C16.002 66.108 8.55491 51.5583 13.2402 42.1904C22.7971 23.2744 31.9536 39.5531 51.9857 44.978Z" fill="url(#paint3_linear_132_6071)" fill-opacity="0.6"/>
<ellipse cx="46.1725" cy="53.6806" rx="14.6511" ry="32.3519" transform="rotate(-57.2434 46.1725 53.6806)" fill="url(#paint4_linear_132_6071)"/>
<ellipse cx="46.1725" cy="53.6806" rx="14.6511" ry="32.3519" transform="rotate(-57.2434 46.1725 53.6806)" fill="url(#paint5_linear_132_6071)" fill-opacity="0.7"/>
<ellipse cx="46.1725" cy="53.6806" rx="14.6511" ry="32.3519" transform="rotate(-57.2434 46.1725 53.6806)" fill="url(#paint6_linear_132_6071)" fill-opacity="0.7"/>
<ellipse cx="46.8032" cy="52.8118" rx="13.5785" ry="31.648" transform="rotate(-57.2434 46.8032 52.8118)" fill="white"/>
<path d="M60.132 60.0798C60.118 60.0888 60.1039 60.0979 60.0899 60.1069C59.9269 60.171 59.7655 60.2362 59.6033 60.3008C59.4332 60.3624 59.1868 60.3477 58.9417 60.3324C58.5646 60.3084 58.1275 60.2051 57.713 60.1316C55.9096 59.8123 54.083 59.459 52.2576 59.1078C51.3902 58.9408 50.4851 58.5803 49.5241 58.0054C49.1756 57.797 48.8492 57.5712 48.545 57.3304C46.6419 55.8251 44.7431 54.3173 42.859 52.8036C42.8169 52.7701 42.7779 52.7353 42.7376 52.7011C43.5059 52.3982 44.2741 52.0953 45.0424 51.7924C45.9027 52.4799 46.7608 53.1682 47.6226 53.8542C48.5061 54.558 49.3951 55.2587 50.2782 55.9627C50.3964 56.0569 50.4824 56.0908 50.5939 56.112C52.0836 56.3982 53.5757 56.6879 55.0479 56.9484C55.2918 56.9914 55.535 57.0329 55.7839 57.0836C55.9073 57.109 55.9612 57.0939 55.965 57.0186C56.0045 56.1752 56.0638 55.3416 56.0731 54.4837C56.075 54.3063 56.0774 54.1287 56.0886 53.9555C56.0932 53.8905 56.0623 53.8323 55.9441 53.7381C54.7835 52.8163 53.6549 51.881 52.4796 50.965C51.8845 50.5011 51.2938 50.0364 50.7112 49.5676C51.4795 49.2647 52.2466 48.9614 53.0149 48.6585C54.0502 49.4705 55.0898 50.28 56.1102 51.0987C56.9959 51.8096 57.8823 52.521 58.7631 53.2338C59.948 54.1926 60.5588 55.0546 60.5569 55.7901C60.5528 57.0564 60.4892 58.2933 60.4069 59.5218C60.3929 59.7242 60.3378 59.904 60.1841 60.0259C60.1461 60.0303 60.1153 60.0398 60.1335 60.081L60.132 60.0798Z" fill="#20BCFF"/>
<path d="M49.3447 53.5254C48.5936 52.9383 47.8694 52.3406 47.1319 51.7473C46.1352 50.9447 45.1063 50.1565 44.1073 49.3549C43.9903 49.2611 43.9025 49.2253 43.7898 49.2037C42.0501 48.8664 40.3202 48.5427 38.5979 48.231C38.4724 48.2083 38.4309 48.2316 38.4264 48.3037C38.3642 49.3107 38.3227 50.3272 38.2996 51.3531C38.2977 51.44 38.3538 51.5102 38.4885 51.6181C40.1224 52.926 41.7615 54.2327 43.4083 55.5355C43.4859 55.5973 43.5617 55.6598 43.6383 55.722C43.6447 55.7361 43.6507 55.7505 43.6572 55.7647C42.8955 56.0632 42.133 56.3611 41.3714 56.6597C40.6907 56.1222 40.0058 55.5846 39.3284 55.045C38.0925 54.0605 36.8548 53.0767 35.6295 52.0889C34.4382 51.1282 33.8292 50.2602 33.8335 49.5229C33.8403 48.4947 33.8726 47.4783 33.9429 46.4804C33.9591 46.2447 33.9657 46.0039 33.987 45.7705C34.0056 45.5655 34.0591 45.3801 34.2491 45.2764C34.2716 45.2693 34.2888 45.2591 34.2733 45.2291C34.2876 45.2208 34.3008 45.2122 34.3151 45.2039C34.4793 45.1402 34.6434 45.0766 34.8079 45.0128C34.8157 45.0089 34.8249 45.0061 34.8367 45.0059C34.8809 45.0246 34.9065 45.0215 34.9257 45.0113C35.1601 44.9579 35.4546 44.9678 35.7904 45.0265C37.9305 45.4042 40.0847 45.8028 42.2651 46.2393C43.3676 46.4598 44.5033 47.0082 45.6326 47.8237C45.6456 47.8538 45.6753 47.8764 45.7202 47.8903C47.1841 49.0586 48.683 50.2121 50.1307 51.3867C50.6386 51.7987 51.1478 52.2102 51.6562 52.6221C51.4297 52.7111 51.2047 52.8013 50.9774 52.8898C50.4334 53.1018 49.8895 53.3139 49.3447 53.5254Z" fill="#24FFA3"/>
<path d="M45.0418 51.7918C44.2735 52.0947 43.5052 52.3975 42.737 52.7004C42.6863 52.643 42.7412 52.6452 42.768 52.6346C43.4845 52.3512 44.2028 52.0697 44.9215 51.7881C44.9488 51.7773 44.9633 51.7479 45.0418 51.7918Z" fill="#20BCFF"/>
<path d="M53.0166 48.6576C52.2483 48.9605 51.4812 49.2638 50.713 49.5666C50.6572 49.5068 50.7162 49.5117 50.7419 49.5008C51.4584 49.2174 52.1764 48.9351 52.8954 48.6543C52.9231 48.6434 52.938 48.6147 53.0161 48.6578L53.0166 48.6576Z" fill="#20BCFF"/>
<path d="M41.3718 56.6605C42.1334 56.362 42.8959 56.064 43.6576 55.7655C43.6665 55.762 43.6762 55.7591 43.6854 55.7563C43.7273 55.8163 43.6656 55.8124 43.6346 55.8255C42.9266 56.1056 42.2176 56.3843 41.5066 56.662C41.4758 56.6741 41.4637 56.7114 41.3725 56.6611L41.3718 56.6605Z" fill="#24FFA3"/>
<path d="M49.3449 53.5255C49.8889 53.3134 50.4336 53.1019 50.9776 52.8898C51.2041 52.8008 51.4306 52.7117 51.6563 52.6221C51.7032 52.6845 51.6396 52.6797 51.6083 52.692C50.9003 52.972 50.1908 53.2509 49.4794 53.5288C49.4495 53.5406 49.4397 53.5813 49.3456 53.526L49.3449 53.5255Z" fill="#24FFA3"/>
<path d="M34.8051 45.0127C34.641 45.0763 34.4769 45.14 34.3123 45.2038C34.4085 45.086 34.5753 45.024 34.8051 45.0127Z" fill="#72FFC4"/>
<path d="M59.6038 60.3003C59.7667 60.2362 59.9282 60.171 60.0904 60.1064C59.9947 60.2239 59.8325 60.2886 59.6038 60.3003Z" fill="#6FD4FF"/>
<path d="M45.7196 47.8904C45.6744 47.8765 45.6449 47.8546 45.6318 47.8237C45.6811 47.836 45.7119 47.8573 45.7196 47.8904Z" fill="#A7FFDA"/>
<path d="M60.1329 60.0795C60.115 60.038 60.1455 60.0287 60.1835 60.0243C60.1965 60.0624 60.175 60.0778 60.1329 60.0795Z" fill="#6FD4FF"/>
<path d="M34.2712 45.2291C34.287 45.2585 34.27 45.2687 34.2473 45.2759C34.2183 45.2386 34.2391 45.2304 34.2712 45.2291Z" fill="#72FFC4"/>
<path d="M34.9236 45.0114C34.9046 45.0215 34.8792 45.0245 34.8355 45.006C34.8493 44.9902 34.8729 44.9852 34.9236 45.0114Z" fill="#72FFC4"/>
<path d="M43.6845 55.7558C43.6756 55.7594 43.6659 55.7623 43.6566 55.7651C43.6504 55.751 43.6445 55.7368 43.6382 55.7227C43.653 55.7334 43.669 55.7445 43.6838 55.7553L43.6845 55.7558Z" fill="#4AFFB3"/>
<path d="M66.2971 19.8575C59.5061 24.2267 56.1543 30.6103 58.0383 34.044C60.2681 37.5098 67.581 36.7773 74.372 32.4081C81.163 28.0389 84.7506 21.7 82.5208 18.2342C80.291 14.7684 73.0881 15.4883 66.2971 19.8575Z" fill="url(#paint7_linear_132_6071)"/>
<path d="M67.2186 21.4248C60.4276 25.7941 54.2558 29.3953 59.2432 36.0517C61.9056 39.6051 69.0691 39.2254 75.8601 34.8562C82.6511 30.487 85.845 24.247 83.8356 20.2294C79.7369 12.1168 72.8902 17.776 67.2186 21.4248Z" fill="url(#paint8_linear_132_6071)"/>
<path d="M67.2133 21.427C60.4223 25.7962 54.2505 29.3974 59.2378 36.0538C61.9003 39.6073 69.0638 39.2276 75.8548 34.8583C82.6458 30.4891 85.8397 24.2491 83.8303 20.2315C79.7315 12.1189 72.9957 17.8039 67.2133 21.427Z" fill="url(#paint9_linear_132_6071)" fill-opacity="0.6"/>
<path d="M67.2159 21.4262C60.4249 25.7954 54.2531 29.3966 59.2404 36.0531C61.9028 39.6065 69.0664 39.2268 75.8574 34.8576C82.6484 30.4883 85.8422 24.2484 83.8328 20.2307C79.7341 12.1181 75.8071 19.0996 67.2159 21.4262Z" fill="url(#paint10_linear_132_6071)" fill-opacity="0.6"/>
<ellipse cx="6.28349" cy="13.8749" rx="6.28349" ry="13.8749" transform="matrix(-0.541071 -0.840977 -0.840977 0.541071 84.7774 22.9356)" fill="url(#paint11_linear_132_6071)"/>
<ellipse cx="6.28349" cy="13.8749" rx="6.28349" ry="13.8749" transform="matrix(-0.541071 -0.840977 -0.840977 0.541071 84.7774 22.9356)" fill="url(#paint12_linear_132_6071)" fill-opacity="0.7"/>
<ellipse cx="6.28349" cy="13.8749" rx="6.28349" ry="13.8749" transform="matrix(-0.541071 -0.840977 -0.840977 0.541071 84.7774 22.9356)" fill="url(#paint13_linear_132_6071)" fill-opacity="0.7"/>
<ellipse cx="5.82349" cy="13.573" rx="5.82349" ry="13.573" transform="matrix(-0.541071 -0.840977 -0.840977 0.541071 84.0036 22.3394)" fill="white"/>
<path d="M63.7217 27.9024C63.7277 27.9063 63.7337 27.9102 63.7397 27.914C63.8096 27.9415 63.8789 27.9695 63.9484 27.9972C64.0214 28.0236 64.1271 28.0173 64.2322 28.0107C64.3939 28.0004 64.5814 27.9562 64.7591 27.9246C65.5326 27.7877 66.316 27.6362 67.0988 27.4856C67.4708 27.4139 67.859 27.2593 68.2711 27.0128C68.4206 26.9234 68.5606 26.8265 68.6911 26.7233C69.5072 26.0777 70.3216 25.431 71.1296 24.7818C71.1477 24.7675 71.1644 24.7525 71.1817 24.7379C70.8522 24.608 70.5227 24.4781 70.1932 24.3482C69.8243 24.643 69.4563 24.9382 69.0867 25.2324C68.7077 25.5342 68.3265 25.8348 67.9477 26.1367C67.897 26.1771 67.8602 26.1916 67.8123 26.2007C67.1734 26.3235 66.5335 26.4477 65.9021 26.5594C65.7975 26.5779 65.6932 26.5957 65.5865 26.6174C65.5336 26.6283 65.5104 26.6218 65.5088 26.5895C65.4918 26.2278 65.4664 25.8703 65.4624 25.5024C65.4616 25.4263 65.4606 25.3501 65.4558 25.2759C65.4538 25.248 65.4671 25.223 65.5178 25.1826C66.0155 24.7873 66.4995 24.3862 67.0036 23.9933C67.2588 23.7944 67.5122 23.595 67.762 23.394C67.4325 23.2641 67.1035 23.134 66.774 23.0041C66.33 23.3523 65.8842 23.6995 65.4465 24.0506C65.0667 24.3555 64.6865 24.6606 64.3088 24.9663C63.8006 25.3776 63.5386 25.7472 63.5395 26.0627C63.5412 26.6057 63.5685 27.1362 63.6038 27.6631C63.6098 27.7499 63.6334 27.827 63.6993 27.8793C63.7156 27.8812 63.7289 27.8853 63.721 27.9029L63.7217 27.9024Z" fill="#20BCFF"/>
<path d="M68.349 25.0916C68.6711 24.8398 68.9817 24.5834 69.298 24.329C69.7255 23.9848 70.1668 23.6468 70.5952 23.3029C70.6454 23.2627 70.683 23.2474 70.7314 23.2381C71.4775 23.0934 72.2194 22.9546 72.958 22.8209C73.0119 22.8112 73.0297 22.8212 73.0316 22.8521C73.0582 23.284 73.0761 23.7199 73.086 24.1599C73.0868 24.1972 73.0627 24.2273 73.0049 24.2736C72.3042 24.8345 71.6013 25.3949 70.895 25.9537C70.8617 25.9802 70.8292 26.007 70.7963 26.0336C70.7936 26.0397 70.791 26.0459 70.7883 26.0519C71.1149 26.18 71.4419 26.3077 71.7686 26.4358C72.0605 26.2053 72.3542 25.9747 72.6448 25.7433C73.1748 25.3211 73.7056 24.8991 74.2311 24.4755C74.742 24.0635 75.0032 23.6912 75.0014 23.375C74.9985 22.934 74.9846 22.4981 74.9545 22.0702C74.9475 21.969 74.9447 21.8658 74.9355 21.7657C74.9275 21.6778 74.9046 21.5983 74.8231 21.5538C74.8135 21.5507 74.8061 21.5463 74.8128 21.5335C74.8066 21.53 74.801 21.5262 74.7948 21.5227C74.7244 21.4954 74.654 21.4681 74.5835 21.4407C74.5801 21.439 74.5762 21.4379 74.5711 21.4378C74.5522 21.4458 74.5412 21.4445 74.5329 21.4401C74.4324 21.4172 74.3061 21.4214 74.1621 21.4466C73.2443 21.6086 72.3204 21.7795 71.3852 21.9667C70.9124 22.0613 70.4254 22.2965 69.941 22.6463C69.9355 22.6591 69.9227 22.6688 69.9035 22.6748C69.2756 23.1759 68.6328 23.6706 68.0119 24.1743C67.7941 24.351 67.5757 24.5275 67.3577 24.7042C67.4548 24.7423 67.5513 24.781 67.6488 24.819C67.8821 24.9099 68.1154 25.0009 68.349 25.0916Z" fill="#24FFA3"/>
<path d="M70.1954 24.3482C70.5249 24.4781 70.8544 24.608 71.1839 24.7379C71.2056 24.7132 71.1821 24.7142 71.1706 24.7096C70.8633 24.5881 70.5552 24.4674 70.247 24.3466C70.2353 24.342 70.2291 24.3294 70.1954 24.3482Z" fill="#20BCFF"/>
<path d="M66.775 23.0038C67.1044 23.1337 67.4334 23.2638 67.7629 23.3937C67.7868 23.368 67.7615 23.3701 67.7505 23.3654C67.4432 23.2439 67.1353 23.1228 66.8269 23.0024C66.815 22.9977 66.8087 22.9854 66.7752 23.0039L66.775 23.0038Z" fill="#20BCFF"/>
<path d="M71.7697 26.4365C71.4431 26.3085 71.1161 26.1807 70.7894 26.0527C70.7856 26.0512 70.7814 26.0499 70.7775 26.0487C70.7595 26.0745 70.786 26.0728 70.7993 26.0784C71.1029 26.1985 71.407 26.3181 71.7119 26.4372C71.7251 26.4424 71.7303 26.4583 71.7694 26.4368L71.7697 26.4365Z" fill="#24FFA3"/>
<path d="M68.3492 25.0914C68.1159 25.0004 67.8823 24.9097 67.649 24.8188C67.5519 24.7806 67.4547 24.7424 67.3579 24.704C67.3378 24.7307 67.3651 24.7286 67.3785 24.7339C67.6822 24.854 67.9864 24.9736 68.2915 25.0928C68.3044 25.0979 68.3086 25.1153 68.3489 25.0916L68.3492 25.0914Z" fill="#24FFA3"/>
<path d="M74.5843 21.4407C74.6546 21.468 74.725 21.4953 74.7956 21.5227C74.7544 21.4722 74.6828 21.4456 74.5843 21.4407Z" fill="#72FFC4"/>
<path d="M63.9502 27.9971C63.8803 27.9697 63.811 27.9417 63.7415 27.914C63.7825 27.9644 63.8521 27.9921 63.9502 27.9971Z" fill="#6FD4FF"/>
<path d="M69.905 22.6751C69.9244 22.6691 69.9371 22.6597 69.9427 22.6465C69.9216 22.6517 69.9083 22.6609 69.905 22.6751Z" fill="#A7FFDA"/>
<path d="M63.7227 27.9028C63.7303 27.885 63.7172 27.881 63.7009 27.8791C63.6954 27.8954 63.7046 27.9021 63.7227 27.9028Z" fill="#6FD4FF"/>
<path d="M74.8139 21.5332C74.8068 21.5464 74.8144 21.5509 74.8246 21.5541C74.8375 21.5375 74.8282 21.5338 74.8139 21.5332Z" fill="#72FFC4"/>
<path d="M74.533 21.4406C74.5415 21.4451 74.5528 21.4465 74.5723 21.4382C74.5661 21.4311 74.5556 21.4289 74.533 21.4406Z" fill="#72FFC4"/>
<path d="M70.7756 26.0488C70.7796 26.0504 70.7839 26.0517 70.7881 26.0529C70.7909 26.0466 70.7935 26.0403 70.7963 26.034C70.7897 26.0388 70.7826 26.0437 70.776 26.0485L70.7756 26.0488Z" fill="#4AFFB3"/>
<defs>
<filter id="filter0_f_132_6071" x="-18" y="-22" width="240" height="239" filterUnits="userSpaceOnUse" color-interpolation-filters="sRGB">
<feFlood flood-opacity="0" result="BackgroundImageFix"/>
<feBlend mode="normal" in="SourceGraphic" in2="BackgroundImageFix" result="shape"/>
<feGaussianBlur stdDeviation="40" result="effect1_foregroundBlur_132_6071"/>
</filter>
<filter id="filter1_f_132_6071" x="-119" y="-121" width="240" height="239" filterUnits="userSpaceOnUse" color-interpolation-filters="sRGB">
<feFlood flood-opacity="0" result="BackgroundImageFix"/>
<feBlend mode="normal" in="SourceGraphic" in2="BackgroundImageFix" result="shape"/>
<feGaussianBlur stdDeviation="40" result="effect1_foregroundBlur_132_6071"/>
</filter>
<linearGradient id="paint0_linear_132_6071" x1="-17.8974" y1="8.21747" x2="109.679" y2="100.186" gradientUnits="userSpaceOnUse">
<stop stop-color="#1580AD"/>
<stop offset="1" stop-color="#15A066"/>
</linearGradient>
<linearGradient id="paint1_linear_132_6071" x1="-20.4607" y1="12.5309" x2="107.456" y2="104.074" gradientUnits="userSpaceOnUse">
<stop stop-color="#1580AD"/>
<stop offset="1" stop-color="#15A066"/>
</linearGradient>
<linearGradient id="paint2_linear_132_6071" x1="13.0753" y1="42.0826" x2="20.314" y2="47.0718" gradientUnits="userSpaceOnUse">
<stop stop-color="#20BCFF"/>
<stop offset="1" stop-color="#20BCFF" stop-opacity="0"/>
</linearGradient>
<linearGradient id="paint3_linear_132_6071" x1="72.5082" y1="76.8071" x2="63.2237" y2="71.9139" gradientUnits="userSpaceOnUse">
<stop stop-color="#24FFA3"/>
<stop offset="1" stop-color="#24FFA3" stop-opacity="0"/>
</linearGradient>
<linearGradient id="paint4_linear_132_6071" x1="56.1137" y1="-45.3524" x2="42.5618" y2="135.148" gradientUnits="userSpaceOnUse">
<stop stop-color="#24FFA3"/>
<stop offset="1" stop-color="#20BCFF"/>
</linearGradient>
<linearGradient id="paint5_linear_132_6071" x1="47.0616" y1="20.1233" x2="45.6694" y2="26.5391" gradientUnits="userSpaceOnUse">
<stop stop-color="#20BCFF"/>
<stop offset="1" stop-color="#20BCFF" stop-opacity="0"/>
</linearGradient>
<linearGradient id="paint6_linear_132_6071" x1="46.5287" y1="87.0053" x2="44.7989" y2="77.824" gradientUnits="userSpaceOnUse">
<stop stop-color="#24FFA3"/>
<stop offset="1" stop-color="#24FFA3" stop-opacity="0"/>
</linearGradient>
<linearGradient id="paint7_linear_132_6071" x1="97.1869" y1="5.66016" x2="42.4725" y2="45.1034" gradientUnits="userSpaceOnUse">
<stop stop-color="#1580AD"/>
<stop offset="1" stop-color="#15A066"/>
</linearGradient>
<linearGradient id="paint8_linear_132_6071" x1="98.2879" y1="7.51038" x2="43.4276" y2="46.7708" gradientUnits="userSpaceOnUse">
<stop stop-color="#1580AD"/>
<stop offset="1" stop-color="#15A066"/>
</linearGradient>
<linearGradient id="paint9_linear_132_6071" x1="83.9025" y1="20.1841" x2="80.798" y2="22.3238" gradientUnits="userSpaceOnUse">
<stop stop-color="#20BCFF"/>
<stop offset="1" stop-color="#20BCFF" stop-opacity="0"/>
</linearGradient>
<linearGradient id="paint10_linear_132_6071" x1="58.4143" y1="35.0769" x2="62.3962" y2="32.9784" gradientUnits="userSpaceOnUse">
<stop stop-color="#24FFA3"/>
<stop offset="1" stop-color="#24FFA3" stop-opacity="0"/>
</linearGradient>
<linearGradient id="paint11_linear_132_6071" x1="10.547" y1="-28.5978" x2="4.73494" y2="48.8145" gradientUnits="userSpaceOnUse">
<stop stop-color="#24FFA3"/>
<stop offset="1" stop-color="#20BCFF"/>
</linearGradient>
<linearGradient id="paint12_linear_132_6071" x1="6.6648" y1="-0.516952" x2="6.0677" y2="2.23463" gradientUnits="userSpaceOnUse">
<stop stop-color="#20BCFF"/>
<stop offset="1" stop-color="#20BCFF" stop-opacity="0"/>
</linearGradient>
<linearGradient id="paint13_linear_132_6071" x1="6.43623" y1="28.1671" x2="5.69439" y2="24.2294" gradientUnits="userSpaceOnUse">
<stop stop-color="#24FFA3"/>
<stop offset="1" stop-color="#24FFA3" stop-opacity="0"/>
</linearGradient>
</defs>
</svg>
