<svg width="103" height="101" viewBox="0 0 103 101" fill="none" xmlns="http://www.w3.org/2000/svg">
<mask id="mask0_132_6074" style="mask-type:alpha" maskUnits="userSpaceOnUse" x="0" y="0" width="103" height="101">
<rect width="103" height="101" rx="25" fill="#323232"/>
</mask>
<g mask="url(#mask0_132_6074)">
<g filter="url(#filter0_f_132_6074)">
<ellipse cx="102" cy="97.5" rx="40" ry="39.5" fill="#20BCFF"/>
</g>
<g filter="url(#filter1_f_132_6074)">
<ellipse cx="1" cy="-1.5" rx="40" ry="39.5" fill="#24FFA3"/>
</g>
</g>
<rect x="32.4241" y="39.3486" width="9.61805" height="24.7097" rx="3" transform="rotate(31.7114 32.4241 39.3486)" fill="url(#paint0_linear_132_6074)"/>
<rect opacity="0.2" x="32.4241" y="39.3486" width="9.61805" height="5.79339" transform="rotate(31.7114 32.4241 39.3486)" fill="black"/>
<rect x="31.0012" y="16.4769" width="37.8259" height="22.8315" rx="5" transform="rotate(31.7114 31.0012 16.4769)" fill="url(#paint1_linear_132_6074)"/>
<rect x="33.1385" y="13" width="37.8297" height="17.6122" rx="5" transform="rotate(31.7114 33.1385 13)" fill="url(#paint2_linear_132_6074)"/>
<ellipse cx="44.2037" cy="30.5842" rx="4.70763" ry="2.93554" transform="rotate(29.7817 44.2037 30.5842)" fill="url(#paint3_linear_132_6074)"/>
<path d="M84.7558 73.8468C84.7842 81.3135 75.1004 87.4034 63.1264 87.449C51.1523 87.4946 41.4224 81.4787 41.394 74.012C39.9992 59 51.0493 60.4554 63.0234 60.4098C74.9974 60.3642 85.9996 58.4999 84.7558 73.8468Z" fill="url(#paint4_linear_132_6074)"/>
<ellipse cx="44.6316" cy="29.8401" rx="4.70763" ry="3.16691" transform="rotate(29.7817 44.6316 29.8401)" fill="url(#paint5_linear_132_6074)"/>
<ellipse cx="44.4656" cy="29.5923" rx="2.01144" ry="1.35313" transform="rotate(29.7817 44.4656 29.5923)" fill="white"/>
<ellipse cx="63.059" cy="69.9787" rx="21.6811" ry="14.5852" transform="rotate(-0.218254 63.059 69.9787)" fill="url(#paint6_linear_132_6074)"/>
<ellipse cx="63.0261" cy="68.7144" rx="20.4769" ry="12.9756" transform="rotate(-0.218254 63.0261 68.7144)" fill="white"/>
<ellipse cx="62.9941" cy="68.0313" rx="5.2052" ry="3.29837" transform="rotate(-0.218254 62.9941 68.0313)" fill="#159384" fill-opacity="0.7"/>
<defs>
<filter id="filter0_f_132_6074" x="-18" y="-22" width="240" height="239" filterUnits="userSpaceOnUse" color-interpolation-filters="sRGB">
<feFlood flood-opacity="0" result="BackgroundImageFix"/>
<feBlend mode="normal" in="SourceGraphic" in2="BackgroundImageFix" result="shape"/>
<feGaussianBlur stdDeviation="40" result="effect1_foregroundBlur_132_6074"/>
</filter>
<filter id="filter1_f_132_6074" x="-119" y="-121" width="240" height="239" filterUnits="userSpaceOnUse" color-interpolation-filters="sRGB">
<feFlood flood-opacity="0" result="BackgroundImageFix"/>
<feBlend mode="normal" in="SourceGraphic" in2="BackgroundImageFix" result="shape"/>
<feGaussianBlur stdDeviation="40" result="effect1_foregroundBlur_132_6074"/>
</filter>
<linearGradient id="paint0_linear_132_6074" x1="29.0865" y1="19.7029" x2="49.1366" y2="20.9818" gradientUnits="userSpaceOnUse">
<stop stop-color="#15A066"/>
<stop offset="1" stop-color="#1580AD"/>
</linearGradient>
<linearGradient id="paint1_linear_132_6074" x1="17.8752" y1="-1.67563" x2="91.614" y2="18.3443" gradientUnits="userSpaceOnUse">
<stop stop-color="#15A066"/>
<stop offset="1" stop-color="#1580AD"/>
</linearGradient>
<linearGradient id="paint2_linear_132_6074" x1="29.5731" y1="-16.821" x2="106.122" y2="24.7833" gradientUnits="userSpaceOnUse">
<stop stop-color="#24FFA3"/>
<stop offset="1" stop-color="#20BCFF"/>
</linearGradient>
<linearGradient id="paint3_linear_132_6074" x1="18.6112" y1="20.5267" x2="67.0895" y2="40.6683" gradientUnits="userSpaceOnUse">
<stop stop-color="#1580AD"/>
<stop offset="1" stop-color="#15A066"/>
</linearGradient>
<linearGradient id="paint4_linear_132_6074" x1="-54.9687" y1="28.0591" x2="168.65" y2="119.97" gradientUnits="userSpaceOnUse">
<stop stop-color="#1580AD"/>
<stop offset="1" stop-color="#15A066"/>
</linearGradient>
<linearGradient id="paint5_linear_132_6074" x1="19.0391" y1="18.9899" x2="68.5433" y2="38.0551" gradientUnits="userSpaceOnUse">
<stop stop-color="#20BCFF"/>
<stop offset="1" stop-color="#24FFA3"/>
</linearGradient>
<linearGradient id="paint6_linear_132_6074" x1="-54.8079" y1="20.0082" x2="173.184" y2="107.813" gradientUnits="userSpaceOnUse">
<stop stop-color="#20BCFF"/>
<stop offset="1" stop-color="#24FFA3"/>
</linearGradient>
</defs>
</svg>
