<svg width="170" height="36" viewBox="0 0 170 36" fill="none" xmlns="http://www.w3.org/2000/svg">
<g clip-path="url(#clip0_132_5419)">
<mask id="mask0_132_5419" style="mask-type:luminance" maskUnits="userSpaceOnUse" x="0" y="0" width="41" height="36">
<path d="M40.2632 0H0V36H40.2632V0Z" fill="white"/>
</mask>
<g mask="url(#mask0_132_5419)">
<path d="M26.8286 35.898C26.7814 35.9031 26.7345 35.9081 26.6873 35.9131C26.2367 35.9131 25.786 35.9157 25.3354 35.9169C24.8773 35.9093 24.4551 35.7496 24.0365 35.5899C23.394 35.3433 22.8245 34.9497 22.2277 34.6114C19.6301 33.1398 17.0685 31.6066 14.5044 30.077C13.2861 29.3501 12.4479 28.325 12.0047 26.9615C11.8437 26.4672 11.7645 25.9603 11.7608 25.4447C11.736 22.2198 11.7249 18.9936 11.7546 15.7673C11.7546 15.6956 11.7633 15.6239 11.7682 15.5522C13.8953 15.551 16.0224 15.5498 18.1495 15.5485C18.1444 17.0163 18.1334 18.4841 18.1346 19.9507C18.1346 21.455 18.1519 22.9581 18.1507 24.4624C18.1507 24.6636 18.2312 24.7605 18.3884 24.8536C20.482 26.1013 22.5719 27.3553 24.6928 28.5564C25.0445 28.7552 25.3985 28.9514 25.7415 29.1639C25.911 29.2696 26.046 29.2784 26.2281 29.1728C28.2622 27.988 30.31 26.8283 32.322 25.6056C32.738 25.3529 33.1553 25.1001 33.5786 24.8585C33.7383 24.7679 33.8163 24.6674 33.8163 24.4662C33.8102 22.4939 33.8943 20.5205 33.8473 18.5483C33.8238 17.5496 33.8102 16.5522 33.8214 15.5536C35.9483 15.5522 38.0742 15.5498 40.2013 15.5485C40.231 17.2931 40.2744 19.0364 40.2607 20.7821C40.2483 22.2977 40.2359 23.8145 40.21 25.3302C40.1752 27.369 39.3024 28.9464 37.5888 29.9978C34.6372 31.8078 31.6434 33.5423 28.6349 35.2541C28.1385 35.5359 27.6185 35.7622 27.0502 35.8502C26.9696 35.8352 26.8905 35.8314 26.8286 35.9006V35.898Z" fill="#20BCFF"/>
<path d="M22.0842 20.4489C22.0581 19.186 22.1064 17.9233 22.12 16.6592C22.1398 14.9499 22.0667 13.2431 22.0805 11.5337C22.0816 11.3338 22.0025 11.2331 21.8439 11.1388C19.4061 9.67727 16.9547 8.24089 14.4896 6.82589C14.31 6.72276 14.1788 6.73282 14.003 6.83344C11.5466 8.23963 9.1063 9.67098 6.67838 11.1262C6.47286 11.2495 6.41343 11.3816 6.41219 11.6117C6.39734 14.4027 6.39485 17.195 6.4159 19.986C6.4159 20.1181 6.41095 20.2501 6.40848 20.3822C6.38742 20.4061 6.36514 20.43 6.34409 20.4539C4.23932 20.4527 2.13454 20.4501 0.0297614 20.4489C0.0186185 19.2967 4.69951e-05 18.1421 4.69951e-05 16.9888C4.69951e-05 14.8844 -0.00490542 12.7802 0.0223329 10.6772C0.0495712 8.63206 0.939768 7.04726 2.66198 5.9945C5.06514 4.52669 7.4881 3.0903 9.93831 1.70173C10.5165 1.37345 11.0885 1.03259 11.6704 0.7106C12.1818 0.427601 12.7117 0.192397 13.3047 0.150891C13.3629 0.153406 13.4186 0.148375 13.4595 0.0968063C13.5053 0.0930329 13.5499 0.0880019 13.5957 0.0842285C14.0476 0.0854862 14.4995 0.086744 14.9527 0.0880019C14.9761 0.086744 14.9997 0.0880019 15.022 0.0942907C15.0603 0.145859 15.1148 0.155922 15.1743 0.152148C15.7326 0.207491 16.2551 0.387352 16.7405 0.660289C19.8259 2.40482 22.8888 4.18709 25.9123 6.03853C27.4414 6.97431 28.2696 8.39811 28.4653 10.2005C28.4195 10.2508 28.4219 10.2999 28.4727 10.3451C28.4678 12.8406 28.5619 15.3347 28.5124 17.8301C28.495 18.7056 28.4814 19.5809 28.4653 20.4564C27.8388 20.4564 27.2124 20.4589 26.5859 20.4576C25.0853 20.4551 23.5847 20.4527 22.0842 20.4489Z" fill="#24FFA3"/>
<path d="M18.1483 15.5473C16.0212 15.5487 13.8941 15.5499 11.767 15.5511C11.8067 15.4404 11.9032 15.4744 11.9775 15.4744C13.9634 15.4718 15.9481 15.4732 17.934 15.4744C18.0096 15.4744 18.1049 15.4404 18.1483 15.5473Z" fill="#20BCFF"/>
<path d="M40.2015 15.5473C38.0744 15.5485 35.9486 15.551 33.8215 15.5523C33.8575 15.4353 33.9551 15.4756 34.0282 15.4744C36.0142 15.4718 38.0001 15.4718 39.9848 15.4744C40.0616 15.4744 40.1557 15.4417 40.2003 15.5473H40.2015Z" fill="#20BCFF"/>
<path d="M0.0287476 20.4501C2.13353 20.4514 4.2383 20.4539 6.34308 20.4552C6.36784 20.4552 6.39261 20.4564 6.41612 20.4576C6.35422 20.5671 6.24899 20.5268 6.16108 20.5281C4.19868 20.5305 2.23752 20.5305 0.27513 20.5281C0.189701 20.5281 0.080748 20.5746 0.0287476 20.4514V20.4501Z" fill="#24FFA3"/>
<path d="M22.0842 20.4489C23.5847 20.4514 25.0853 20.4552 26.5859 20.4576C27.2124 20.4576 27.8389 20.4576 28.4653 20.4564C28.4072 20.5721 28.3007 20.5293 28.2141 20.5293C26.2516 20.5319 24.2893 20.5319 22.3257 20.5293C22.2426 20.5293 22.13 20.5821 22.0842 20.4501V20.4489Z" fill="#24FFA3"/>
<path d="M14.9514 0.0866797C14.4994 0.0854218 14.0475 0.0841641 13.5944 0.0829063C14.0463 -0.0315511 14.4994 -0.0265201 14.9514 0.0866797Z" fill="#72FFC4"/>
<path d="M25.3354 35.9169C25.7862 35.9169 26.2368 35.9144 26.6875 35.9131C26.2368 36.0276 25.7862 36.0288 25.3354 35.9169Z" fill="#6FD4FF"/>
<path d="M28.473 10.3452C28.4221 10.2999 28.4184 10.2521 28.4655 10.2006C28.5274 10.2458 28.5348 10.2936 28.473 10.3452Z" fill="#A7FFDA"/>
<path d="M26.8284 35.8982C26.8917 35.8289 26.9696 35.8327 27.05 35.8478C26.9858 35.9094 26.9101 35.9195 26.8284 35.8982Z" fill="#6FD4FF"/>
<path d="M13.4605 0.0955743C13.4207 0.147143 13.3646 0.152174 13.3049 0.149659C13.3385 0.0792233 13.397 0.0792233 13.4605 0.0955743Z" fill="#72FFC4"/>
<path d="M15.1753 0.152176C15.1155 0.155948 15.0607 0.145887 15.022 0.0943178C15.0856 0.0792246 15.1416 0.0855135 15.1753 0.152176Z" fill="#72FFC4"/>
<path d="M6.41722 20.4577C6.39246 20.4577 6.36769 20.4565 6.34418 20.4551C6.36522 20.4312 6.38751 20.4073 6.40855 20.3834C6.41103 20.4073 6.41474 20.4326 6.41722 20.4565V20.4577Z" fill="#4AFFB3"/>
</g>
<path d="M65.2263 16.0548C65.2263 17.4777 65.0489 18.7719 64.6939 19.9377C64.339 21.0862 63.8067 22.0806 63.0968 22.9205C62.4039 23.7605 61.5336 24.4033 60.4857 24.8491C59.4548 25.2949 58.2548 25.5177 56.8859 25.5177C55.4662 25.5177 54.2325 25.2949 53.1846 24.8491C52.1368 24.3863 51.2665 23.7434 50.5735 22.9205C49.8805 22.0806 49.3652 21.0777 49.0271 19.912C48.689 18.7462 48.5201 17.452 48.5201 16.0291C48.5201 14.1434 48.8243 12.4977 49.4327 11.092C50.0411 9.68626 50.9623 8.58911 52.196 7.80054C53.4466 7.01197 55.0184 6.61768 56.9112 6.61768C58.7196 6.61768 60.2407 7.01197 61.4744 7.80054C62.7081 8.57197 63.6377 9.66911 64.263 11.092C64.9052 12.4977 65.2263 14.152 65.2263 16.0548ZM50.9284 16.0548C50.9284 17.5977 51.1397 18.9262 51.5622 20.0405C51.9846 21.1549 52.6354 22.0119 53.5142 22.612C54.41 23.212 55.5338 23.512 56.8859 23.512C58.2548 23.512 59.3703 23.212 60.2322 22.612C61.111 22.0119 61.7617 21.1549 62.1842 20.0405C62.6067 18.9262 62.818 17.5977 62.818 16.0548C62.818 13.7405 62.3448 11.932 61.3983 10.6291C60.4518 9.30911 58.9561 8.64911 56.9112 8.64911C55.5423 8.64911 54.41 8.94911 53.5142 9.54911C52.6354 10.132 51.9846 10.9805 51.5622 12.0948C51.1397 13.192 50.9284 14.512 50.9284 16.0548ZM77.7054 17.4691C77.604 17.1091 77.5026 16.7577 77.4011 16.4148C77.2997 16.0548 77.2067 15.7205 77.1223 15.412C77.0546 15.0863 76.987 14.7862 76.9195 14.512C76.8518 14.2377 76.8011 14.0063 76.7674 13.8177H76.666C76.6321 14.0063 76.5814 14.2377 76.5139 14.512C76.4632 14.7862 76.3955 15.0863 76.3111 15.412C76.2434 15.7376 76.1589 16.0805 76.0575 16.4405C75.973 16.7834 75.8716 17.1348 75.7533 17.4948L73.3197 25.2348H70.7846L67.058 11.452H69.3649L71.2409 18.8063C71.376 19.3034 71.5027 19.8091 71.6211 20.3234C71.7394 20.8206 71.8408 21.3005 71.9254 21.7634C72.0268 22.2092 72.0943 22.5949 72.1282 22.9205H72.2296C72.2803 22.7148 72.3393 22.4577 72.407 22.1491C72.4746 21.8405 72.5421 21.5149 72.6098 21.172C72.6942 20.8291 72.7788 20.4863 72.8633 20.1434C72.9647 19.8005 73.0576 19.4919 73.1422 19.2177L75.5505 11.452H77.9842L80.3165 19.2177C80.4347 19.612 80.553 20.0319 80.6714 20.4777C80.8065 20.9234 80.9249 21.3606 81.0263 21.7891C81.1277 22.2005 81.1953 22.5692 81.2291 22.8948H81.3305C81.3642 22.6033 81.4234 22.2433 81.508 21.8148C81.6094 21.3691 81.7191 20.8891 81.8376 20.3748C81.9727 19.8434 82.1079 19.3205 82.2432 18.8063L84.1445 11.452H86.4261L82.6488 25.2348H80.0376L77.7054 17.4691ZM95.4035 11.2205C97.026 11.2205 98.2513 11.6234 99.0794 12.4291C99.9075 13.2177 100.322 14.5034 100.322 16.2863V25.2605H98.1161V16.4405C98.1161 15.3262 97.8711 14.4948 97.3809 13.9463C96.8908 13.3977 96.1219 13.1234 95.074 13.1234C93.5698 13.1234 92.5304 13.552 91.9558 14.4091C91.3813 15.2663 91.0939 16.5006 91.0939 18.112V25.2605H88.863V11.4777H90.6629L90.9925 13.3548H91.1192C91.4235 12.8748 91.7952 12.4805 92.2347 12.172C92.691 11.8463 93.1895 11.6063 93.7304 11.452C94.2713 11.2977 94.829 11.2205 95.4035 11.2205ZM110.796 13.2263H107.373V25.2605H105.142V13.2263H102.759V12.172L105.142 11.4005V10.6034C105.142 9.42054 105.311 8.46053 105.649 7.7234C106.004 6.98626 106.511 6.44626 107.171 6.1034C107.83 5.76053 108.624 5.58911 109.554 5.58911C110.094 5.58911 110.584 5.64054 111.024 5.7434C111.48 5.82912 111.869 5.93197 112.19 6.05197L111.607 7.82625C111.337 7.74053 111.024 7.65483 110.669 7.56911C110.314 7.48339 109.951 7.44054 109.579 7.44054C108.835 7.44054 108.277 7.69768 107.906 8.21197C107.551 8.70912 107.373 9.49768 107.373 10.5777V11.4777H110.796V13.2263ZM115.486 11.4777V25.2605H113.255V11.4777H115.486ZM114.396 6.30911C114.734 6.30911 115.029 6.42911 115.283 6.66911C115.553 6.89196 115.688 7.25196 115.688 7.74911C115.688 8.22911 115.553 8.58911 115.283 8.82911C115.029 9.06912 114.734 9.18911 114.396 9.18911C114.024 9.18911 113.711 9.06912 113.458 8.82911C113.204 8.58911 113.077 8.22911 113.077 7.74911C113.077 7.25196 113.204 6.89196 113.458 6.66911C113.711 6.42911 114.024 6.30911 114.396 6.30911ZM126.325 11.2205C127.947 11.2205 129.172 11.6234 130.001 12.4291C130.829 13.2177 131.243 14.5034 131.243 16.2863V25.2605H129.037V16.4405C129.037 15.3262 128.792 14.4948 128.302 13.9463C127.812 13.3977 127.043 13.1234 125.995 13.1234C124.491 13.1234 123.452 13.552 122.877 14.4091C122.302 15.2663 122.015 16.5006 122.015 18.112V25.2605H119.784V11.4777H121.584L121.914 13.3548H122.04C122.345 12.8748 122.716 12.4805 123.156 12.172C123.612 11.8463 124.111 11.6063 124.652 11.452C125.192 11.2977 125.75 11.2205 126.325 11.2205ZM137.686 11.4777V25.2605H135.455V11.4777H137.686ZM136.596 6.30911C136.934 6.30911 137.23 6.42911 137.483 6.66911C137.754 6.89196 137.889 7.25196 137.889 7.74911C137.889 8.22911 137.754 8.58911 137.483 8.82911C137.23 9.06912 136.934 9.18911 136.596 9.18911C136.224 9.18911 135.911 9.06912 135.658 8.82911C135.404 8.58911 135.278 8.22911 135.278 7.74911C135.278 7.25196 135.404 6.89196 135.658 6.66911C135.911 6.42911 136.224 6.30911 136.596 6.30911ZM146.529 23.6663C146.867 23.6663 147.213 23.6405 147.568 23.5891C147.923 23.5206 148.21 23.4519 148.43 23.3834V25.1063C148.193 25.2262 147.855 25.3206 147.416 25.3891C146.977 25.4749 146.554 25.5177 146.149 25.5177C145.439 25.5177 144.78 25.3977 144.171 25.1577C143.58 24.9005 143.098 24.4634 142.726 23.8463C142.354 23.2291 142.168 22.3634 142.168 21.2491V13.2263H140.242V12.1463L142.194 11.2463L143.081 8.31483H144.399V11.4777H148.329V13.2263H144.399V21.1977C144.399 22.0376 144.594 22.6634 144.982 23.0748C145.388 23.4692 145.903 23.6663 146.529 23.6663ZM149.021 11.4777H151.404L154.345 19.3205C154.514 19.7834 154.666 20.2292 154.801 20.6577C154.953 21.0862 155.089 21.5063 155.207 21.9177C155.325 22.312 155.419 22.6977 155.486 23.0748H155.587C155.689 22.6463 155.85 22.0891 156.069 21.4034C156.288 20.7005 156.516 19.9977 156.753 19.2948L159.517 11.4777H161.925L156.069 27.1634C155.748 28.0206 155.368 28.7663 154.928 29.4005C154.506 30.052 153.981 30.5491 153.356 30.892C152.748 31.252 152.004 31.432 151.126 31.432C150.72 31.432 150.365 31.4063 150.061 31.3548C149.757 31.3205 149.494 31.2777 149.275 31.2263V29.4263C149.461 29.4606 149.681 29.4948 149.934 29.5291C150.204 29.5634 150.483 29.5805 150.771 29.5805C151.294 29.5805 151.743 29.4777 152.114 29.272C152.503 29.0833 152.833 28.8005 153.103 28.4234C153.373 28.0634 153.601 27.6349 153.787 27.1377L154.497 25.312L149.021 11.4777Z" fill="#606060"/>
<path d="M166.943 9.65798C168.537 9.65798 169.829 8.34757 169.829 6.73109C169.829 5.11461 168.537 3.8042 166.943 3.8042C165.349 3.8042 164.057 5.11461 164.057 6.73109C164.057 8.34757 165.349 9.65798 166.943 9.65798Z" stroke="#606060" stroke-width="0.3"/>
<path d="M166.939 5.4895C167.132 5.4895 167.292 5.51502 167.417 5.56604C167.544 5.61485 167.638 5.68917 167.699 5.789C167.76 5.88883 167.791 6.01418 167.791 6.16503C167.791 6.29149 167.768 6.39687 167.723 6.48117C167.677 6.56546 167.617 6.63314 167.545 6.68416C167.475 6.73297 167.401 6.77178 167.322 6.80063L167.964 7.8655H167.62L167.053 6.88382H166.587V7.8655H166.291V5.4895H166.939ZM166.922 5.74906H166.587V6.63091H166.939C167.065 6.63091 167.17 6.61428 167.25 6.581C167.331 6.5455 167.39 6.49448 167.428 6.42792C167.466 6.36137 167.486 6.27817 167.486 6.17834C167.486 6.07408 167.465 5.99089 167.423 5.92876C167.384 5.86664 167.323 5.82117 167.24 5.79233C167.156 5.76348 167.05 5.74906 166.922 5.74906Z" fill="#606060"/>
</g>
<defs>
<clipPath id="clip0_132_5419">
<rect width="170" height="36" fill="white"/>
</clipPath>
</defs>
</svg>
